<?xml version="1.0" encoding="UTF-8" standalone="no"?>
<svg
   xmlns:dc="http://purl.org/dc/elements/1.1/"
   xmlns:cc="http://creativecommons.org/ns#"
   xmlns:rdf="http://www.w3.org/1999/02/22-rdf-syntax-ns#"
   xmlns:svg="http://www.w3.org/2000/svg"
   xmlns="http://www.w3.org/2000/svg"
   xmlns:sodipodi="http://sodipodi.sourceforge.net/DTD/sodipodi-0.dtd"
   xmlns:inkscape="http://www.inkscape.org/namespaces/inkscape"
   version="1.1"
   id="svg2"
   xml:space="preserve"
   width="4252.5469"
   height="2666.6667"
   viewBox="0 0 4252.5469 2666.6667"
   sodipodi:docname="Happy couple of tourists with backpacks.eps"><metadata
     id="metadata8"><rdf:RDF><cc:Work
         rdf:about=""><dc:format>image/svg+xml</dc:format><dc:type
           rdf:resource="http://purl.org/dc/dcmitype/StillImage" /></cc:Work></rdf:RDF></metadata><defs
     id="defs6" /><sodipodi:namedview
     pagecolor="#ffffff"
     bordercolor="#666666"
     borderopacity="1"
     objecttolerance="10"
     gridtolerance="10"
     guidetolerance="10"
     inkscape:pageopacity="0"
     inkscape:pageshadow="2"
     inkscape:window-width="640"
     inkscape:window-height="480"
     id="namedview4" /><g
     id="g10"
     inkscape:groupmode="layer"
     inkscape:label="ink_ext_XXXXXX"
     transform="matrix(1.3333333,0,0,-1.3333333,0,2666.6667)"><g
       id="g12"
       transform="scale(0.1)"><path
         d="M 0,8187.7 H 31893.4 V 20000 H 0 Z"
         style="fill:#eafcfc;fill-opacity:1;fill-rule:nonzero;stroke:none"
         id="path14" /><path
         d="m 0,6205.8 11246.4,157.5 -412.5,974.3 c 0,0 -5650.8,10215.1 -7803.91,10671 C 1838.84,18260.8 742.18,17094.9 0,16002.8 v -9797"
         style="fill:#9bc1f9;fill-opacity:1;fill-rule:nonzero;stroke:none"
         id="path16" /><path
         d="m 16604.3,11350 c 0,0 8623.9,7224 10145.3,7258.1 1397,31.4 5143.8,-6644.8 5143.8,-6644.8 V 9767.8 c 0,0 9.3,-1811.1 -44,-1850.4 -53.4,-39.3 -7600.5,859.3 -7600.5,859.3 l -7907.1,890.9 262.5,1682.4"
         style="fill:#86b1f2;fill-opacity:1;fill-rule:nonzero;stroke:none"
         id="path18" /><path
         d="m 7959.32,14853.2 245.8,-1986.5 h -491.61 z"
         style="fill:#3c8f7c;fill-opacity:1;fill-rule:nonzero;stroke:none"
         id="path20" /><path
         d="m 8739.82,14616.4 187.21,-1512.9 h -374.42 z"
         style="fill:#3c8f7c;fill-opacity:1;fill-rule:nonzero;stroke:none"
         id="path22" /><path
         d="m 9488.7,14028.6 187.21,-1512.9 h -374.42 z"
         style="fill:#3c8f7c;fill-opacity:1;fill-rule:nonzero;stroke:none"
         id="path24" /><path
         d="m 7168.91,14304.6 245.81,-1986.5 h -491.61 z"
         style="fill:#3c8f7c;fill-opacity:1;fill-rule:nonzero;stroke:none"
         id="path26" /><path
         d="M 31893.4,9013.9 23674,8933.2 c 0,0 2843.8,2099.8 3373.9,2192.2 16.6,2.9 33,5.5 49.2,7.8 530.8,74.1 1029.1,301.7 1420.3,668 332.4,311.1 800.7,560.1 1396.7,417.5 527,-126.2 1471.2,-1690 1979.3,-2584.3 v -620.5"
         style="fill:#9bc1f9;fill-opacity:1;fill-rule:nonzero;stroke:none"
         id="path28" /><path
         d="m 6524.74,7074.1 c 0,0 4868.06,7836.4 6722.96,8186.1 1854.9,349.7 3443.9,-2855 3443.9,-2855 0,0 839.7,732.4 2130.9,446.4 1291.2,-286 8216.7,-6785.2 8216.7,-6785.2 l -20869.85,260.2 355.39,747.5"
         style="fill:#9bc1f9;fill-opacity:1;fill-rule:nonzero;stroke:none"
         id="path30" /><path
         d="M 31893.4,7532.5 C 30325.8,7521.1 29020.2,6268.4 24573.5,6268.4 19634.1,6268.4 13149,12731.1 8827.06,13450.2 4505.08,14169.3 62.5508,6159.9 62.5508,6159.9 l 31830.8492,94 v 1278.6"
         style="fill:#86b1f2;fill-opacity:1;fill-rule:nonzero;stroke:none"
         id="path32" /><path
         d="m 14146,12712.7 -339.5,-2743.6 h 679 z"
         style="fill:#3c8f7c;fill-opacity:1;fill-rule:nonzero;stroke:none"
         id="path34" /><path
         d="m 9079.32,11916.1 -339.5,-2743.7 h 678.99 z"
         style="fill:#3c8f7c;fill-opacity:1;fill-rule:nonzero;stroke:none"
         id="path36" /><path
         d="m 8612.65,11062.1 -339.5,-2743.7 h 679 z"
         style="fill:#3c8f7c;fill-opacity:1;fill-rule:nonzero;stroke:none"
         id="path38" /><path
         d="m 15124.4,11996.9 -339.5,-2743.7 h 679 z"
         style="fill:#3c8f7c;fill-opacity:1;fill-rule:nonzero;stroke:none"
         id="path40" /><path
         d="m 19371.7,11388 -339.5,-2743.7 h 679 z"
         style="fill:#3c8f7c;fill-opacity:1;fill-rule:nonzero;stroke:none"
         id="path42" /><path
         d="m 19711.2,10896.6 -339.5,-2743.7 h 679 z"
         style="fill:#3c8f7c;fill-opacity:1;fill-rule:nonzero;stroke:none"
         id="path44" /><path
         d="m 13253.9,11996.9 -339.5,-2743.7 h 679 z"
         style="fill:#3c8f7c;fill-opacity:1;fill-rule:nonzero;stroke:none"
         id="path46" /><path
         d="M 31849.4,9127.8 C 24712.1,10387.4 12916.8,10611.9 10911.1,10528.9 4801.14,10276 62.5508,6159.9 62.5508,6159.9 L 31849.4,6115 v 3012.8"
         style="fill:#96d9c9;fill-opacity:1;fill-rule:nonzero;stroke:none"
         id="path48" /><path
         d="m 369.586,5407.2 9209.334,-90.4 c 0,0 -3182.23,2349.8 -3775.51,2453.2 -18.54,3.2 -36.88,6.1 -55.01,8.6 -593.95,83 -1151.62,337.7 -1589.39,747.5 -371.9,348.3 -896.03,626.9 -1562.96,467.2 C 2006.33,8852.1 938.238,7102.2 369.586,6101.5 v -694.3"
         style="fill:#42a88d;fill-opacity:1;fill-rule:nonzero;stroke:none"
         id="path50" /><path
         d="m 1220.65,6431.9 c 0,0 449.7,1159 1006.62,1025 451.31,-108.6 130.44,-691.8 157.95,-665.3 27.51,26.5 269.57,422.4 661.23,422.4 391.66,0 -120.22,-534.3 -120.22,-534.3 0,0 834.46,251.2 899.8,-12.5 54.23,-218.9 -249.06,-235.3 -249.06,-235.3 H 1220.65"
         style="fill:#184655;fill-opacity:1;fill-rule:nonzero;stroke:none"
         id="path52" /><path
         d="m 10820.8,6871.8 h -106.2 V 8049 h 106.2 V 6871.8"
         style="fill:#355389;fill-opacity:1;fill-rule:nonzero;stroke:none"
         id="path54" /><path
         d="M 10767.7,10332.7 10421,7531.1 h 693.4 z"
         style="fill:#3c8f7c;fill-opacity:1;fill-rule:nonzero;stroke:none"
         id="path56" /><path
         d="m 10546.8,8547.2 494.3,-423.9 -19,153.6 -460,394.4 -15.3,-124.1"
         style="fill:#50bfa5;fill-opacity:1;fill-rule:nonzero;stroke:none"
         id="path58" /><path
         d="m 10622.7,9161.3 302.7,-103.5 -14.2,115 -275.4,94.2 -13.1,-105.7"
         style="fill:#50bfa5;fill-opacity:1;fill-rule:nonzero;stroke:none"
         id="path60" /><path
         d="m 11597.8,7169.2 h -76.4 v 1338.6 h 76.4 V 7169.2"
         style="fill:#355389;fill-opacity:1;fill-rule:nonzero;stroke:none"
         id="path62" /><path
         d="M 11579.6,10894.4 11203.1,8192.5 H 11956 Z"
         style="fill:#3c8f7c;fill-opacity:1;fill-rule:nonzero;stroke:none"
         id="path64" /><path
         d="m 11227,8363.9 675.5,212.9 -10.2,73.3 -654.1,-206.2 -11.2,-80"
         style="fill:#50bfa5;fill-opacity:1;fill-rule:nonzero;stroke:none"
         id="path66" /><path
         d="m 11346,9217.5 447.5,141.1 -10.2,73.3 -426.2,-134.4 -11.1,-80"
         style="fill:#50bfa5;fill-opacity:1;fill-rule:nonzero;stroke:none"
         id="path68" /><path
         d="M 15956,10072.7 15616.5,7329 h 679 z"
         style="fill:#3c8f7c;fill-opacity:1;fill-rule:nonzero;stroke:none"
         id="path70" /><path
         d="m 17228.3,9886.4 -339.5,-2743.7 h 679 z"
         style="fill:#3c8f7c;fill-opacity:1;fill-rule:nonzero;stroke:none"
         id="path72" /><path
         d="m 16542.6,10880.8 -339.5,-2743.7 h 679 z"
         style="fill:#3c8f7c;fill-opacity:1;fill-rule:nonzero;stroke:none"
         id="path74" /><path
         d="m 9578.92,6284.1 c 0,0 2869.98,2323 4185.48,2587.8 1315.5,264.8 2881.4,-361.6 3875.5,-655.6 994.2,-294.1 4845.1,-1367.1 5277.1,-1735.5 432.1,-368.4 -1341.6,-1853.7 -2900.4,-1714.5 -1558.9,139.3 -8154.9,971.9 -8312.6,877.1 -157.7,-94.7 -2125.08,640.7 -2125.08,640.7"
         style="fill:#77c6b1;fill-opacity:1;fill-rule:nonzero;stroke:none"
         id="path76" /><path
         d="m 5895.7,7511.3 c 99.93,260.6 197.82,521.3 268.86,792.4 218.62,834.1 165.84,1442.1 157.69,1734.4 -1.08,38.7 60.75,49.3 66.15,9.4 18.58,-137.2 22.72,-276.6 23.63,-415.1 1.53,-233.9 -12.66,-467.9 -42.58,-701.7 160.36,-41.9 312.06,20.8 436.17,133.4 213.93,194.1 290.29,452.8 323.92,739.3 3.44,29.3 4.51,57 28.29,73.9 5.29,15 27.19,19.7 32.63,-2.7 33.9,-35 17.47,-105.1 12.26,-150.2 -70.6,-610.3 -440.77,-906.1 -738.79,-903.5 -32.69,0.3 -72.43,1.9 -107.96,11.8 -21.48,-146 -49.1,-291 -82.89,-434.4 C 6208.69,8125 6118.36,7861.2 6018.97,7599.9 5679.12,6706.4 5570.68,6250 5474.12,5991.3 c -14.6,-51.9 -91.33,-30.2 -77.9,22.5 4.78,18.7 269.93,899 499.48,1497.5"
         style="fill:#184655;fill-opacity:1;fill-rule:nonzero;stroke:none"
         id="path78" /><path
         d="m 4533.98,9860.4 c 3.22,19.2 14.43,31.9 18.69,49.9 5.63,23.8 44.3,26.2 48.35,0 2.31,-14.9 10.59,-24.1 13.8,-39.4 10.36,-49.4 -14.69,-327.4 50.72,-752.9 17.38,-113.1 36.58,-225.5 74.16,-333.5 60.73,-174.4 171.42,-362.5 309.05,-481.4 4.37,249.3 19.24,498.2 49.06,745.7 17.85,148.2 40.37,295.7 67.73,442.3 13.31,71.3 27.73,142.5 43.22,213.4 16.25,74.4 31.57,145.9 67.12,213.2 10.91,20.7 41.95,11.1 42,-11.9 0.13,-66.1 -13.05,-126.9 -26.79,-191.1 -13.69,-63.9 -26.51,-128 -38.44,-192.3 -88.43,-476.4 -121.69,-899.5 -121.32,-1376.5 145.8,183.8 273.27,403.9 367.73,620.2 113.53,259.8 190.01,539.5 221.83,823.4 8.91,79.3 14.32,159.2 16.02,239.1 0.88,41.4 1.72,82.8 2.55,124.1 0.43,21.3 8.57,85.5 44.35,66.7 32.92,-17.3 29.8,-55.9 32.55,-89.6 3.01,-36.8 3.27,-73.5 2.81,-110.4 -0.88,-70.7 -4.66,-141.3 -11.19,-211.6 -47.33,-509.7 -239.23,-1013.5 -531.02,-1426.3 -44.47,-62.9 -90.4,-130.4 -144.42,-185.3 12.44,-815.8 133.34,-1846.3 135.45,-1928.6 0.47,-18.2 -3.62,-36.8 -6.3,-54.8 -5.52,-37 -54.05,-28.4 -63.97,0 -18.75,53.8 -16.82,74.7 -44.79,372.3 -49.85,530.7 -105.71,1746.5 -105.5,1795.7 -173.25,124.8 -295.92,316.7 -376.08,517.1 -42.54,106.4 -67.5,215.8 -86.22,329.1 -63.68,385.2 -61.7,770.4 -51.15,833.4"
         style="fill:#184655;fill-opacity:1;fill-rule:nonzero;stroke:none"
         id="path80" /><path
         d="m 5724.89,10526.1 c -6.56,58.8 -9.98,118.9 -9.98,180.1 0,682.2 423.01,1235.2 944.81,1235.2 521.81,0 944.81,-553 944.81,-1235.2 0,-61.2 -3.42,-121.3 -9.98,-180.1 H 5724.89"
         style="fill:#184655;fill-opacity:1;fill-rule:nonzero;stroke:none"
         id="path82" /><path
         d="m 4655.62,10829.7 c -6.57,82.9 -9.99,167.7 -9.99,254 0,962.1 423.01,1742 944.81,1742 521.81,0 944.82,-779.9 944.82,-1742 0,-86.3 -3.42,-171.1 -9.99,-254 H 4655.62"
         style="fill:#3c8f7c;fill-opacity:1;fill-rule:nonzero;stroke:none"
         id="path84" /><path
         d="m 6513.66,9762.2 c 8.32,82.9 12.66,167.7 12.66,254 0,962.1 -536.25,1742 -1197.74,1742 -661.49,0 -1197.74,-779.9 -1197.74,-1742 0,-86.3 4.34,-171.1 12.67,-254 h 2370.15"
         style="fill:#184655;fill-opacity:1;fill-rule:nonzero;stroke:none"
         id="path86" /><path
         d="m 5594.02,11758.2 c 330.61,0 625.96,-247.4 820.88,-635.5 99.26,35.7 204.72,54.8 314.04,54.8 586.96,0 1062.79,-553 1062.79,-1235.2 0,-61.2 -3.84,-121.3 -11.23,-180.1 H 4542.47 c -7.39,82.9 -11.24,167.7 -11.24,254 0,962.1 475.83,1742 1062.79,1742"
         style="fill:#3c8f7c;fill-opacity:1;fill-rule:nonzero;stroke:none"
         id="path88" /><path
         d="m 2100.7,7850.6 c -337.32,0 -615.47,-376.6 -615.47,-376.6 0,0 246.96,680 0,770.7 -269.41,98.9 -1003.582,-998.3 -1003.582,-998.3 0,0 107.704,841.3 -306.156,658.2 C 115.855,7878.2 57.0273,7828.3 0,7762.5 V 6420.3 l 1839.98,20.1 c 0,0 598.03,1410.2 260.72,1410.2"
         style="fill:#3c8f7c;fill-opacity:1;fill-rule:nonzero;stroke:none"
         id="path90" /><path
         d="m 31893.4,9280.6 c -411.9,138.6 -893.5,-28.4 -1155.7,-431 l -225,-345.4 c -98.6,-151.3 -264.6,-230.4 -425.4,-219.5 -146,9.8 -289.4,-67.2 -373.1,-195.7 l -118.6,-182.1 c -128.4,-197.1 -161.2,-437.9 -96.9,-655.6 37.7,-127.3 19.7,-273.4 -61.3,-397.7 l -168,-257.8 c -185.6,-285.1 -118.6,-657.9 149.7,-832.7 l 153.1,-99.7 c 268.3,-174.8 636.4,-85.4 822.1,199.6 190.5,388.8 432.6,527 633.1,565.6 294.9,56.7 560.9,233.2 730.2,493 l 23.7,36.5 c 46.1,70.8 83.5,145.6 112.1,222.9 v 2099.6"
         style="fill:#3c8f7c;fill-opacity:1;fill-rule:nonzero;stroke:none"
         id="path92" /><path
         d="m 31893.4,7308.6 c -274,-311.3 -496.5,-635.2 -496.5,-635.2 0,0 314.6,729.4 0,826.6 -343.1,106.1 -1020.8,-730.7 -1020.8,-730.7 0,0 239.4,440.1 -287.8,243.7 -527.2,-196.4 -1364.8,-1476.7 -1364.8,-1476.7 l 3169.9,9.9 v 1762.4"
         style="fill:#184655;fill-opacity:1;fill-rule:nonzero;stroke:none"
         id="path94" /><path
         d="m 25260,5329.5 c 0,0 603.2,2102.1 1268.4,2396.4 665.1,294.3 492,-1057.8 492,-1057.8 0,0 1180.1,1763.5 1613.1,1604.5 396.9,-145.7 0,-1238.8 0,-1238.8 0,0 447.1,605.3 989.2,605.3 542.2,0 -419,-2266.5 -419,-2266.5 L 25260,5329.5"
         style="fill:#42a88d;fill-opacity:1;fill-rule:nonzero;stroke:none"
         id="path96" /><path
         d="M 0.144531,0 H 31893.445 V 6440.1 H 0.144531 Z"
         style="fill:#50bfa5;fill-opacity:1;fill-rule:nonzero;stroke:none"
         id="path98" /><path
         d="M 31893.4,3077.2 H 0.144531 V 0 H 31893.4 v 3077.2"
         style="fill:#184655;fill-opacity:1;fill-rule:nonzero;stroke:none"
         id="path100" /><path
         d="M 31893.4,3077.2 H 0.144531 v 299.5 H 31893.4 v -299.5"
         style="fill:#eafcfc;fill-opacity:1;fill-rule:nonzero;stroke:none"
         id="path102" /><path
         d="M 31893.4,3360.6 H 0.144531 v 636.6 H 31893.4 v -636.6"
         style="fill:#86b1f2;fill-opacity:1;fill-rule:nonzero;stroke:none"
         id="path104" /><path
         d="M 31893.4,3921.4 H 0.144531 v 75.8 H 31893.4 v -75.8"
         style="fill:#9bc1f9;fill-opacity:1;fill-rule:nonzero;stroke:none"
         id="path106" /><path
         d="m 14508.3,5524 c 30.5,6 4130.1,-768.4 4152.4,-935 22.4,-166.6 98.5,-264.1 -163.7,-260.2 -262.2,4 -1660,147.4 -2063.9,237.1 -404,89.7 -123,149.4 -959.9,191.3 -836.8,41.8 -1065.1,137.5 -1202,101.6 -136.9,-35.9 -397,0.8 -397,71.3 0,217 634.1,593.9 634.1,593.9"
         style="fill:#f7cc7f;fill-opacity:1;fill-rule:nonzero;stroke:none"
         id="path108" /><path
         d="m 18984.3,4044.6 c 0,0 152.5,32.9 200.3,-194.2 47.8,-227.2 77.1,-397.9 23.6,-524.7 -53.5,-126.9 -1852.7,-300.2 -1852.7,-264.4 0,35.9 -406.5,804 -406.5,804 0,0 358.7,218.2 382.6,230.1 23.9,12 1652.7,-50.8 1652.7,-50.8"
         style="fill:#f7cc7f;fill-opacity:1;fill-rule:nonzero;stroke:none"
         id="path110" /><path
         d="m 3643.41,5595.8 1210.42,555.9 c 0,0 1524.24,780 2133.93,887.6 609.69,107.6 1022.13,125.5 1497.32,161.4 475.21,35.8 2474.62,-26.9 2474.62,-26.9 0,0 657.5,-155.4 1016.2,-316.8 358.6,-161.4 2229.5,-1333 2229.5,-1333 h 302.9 c 0,0 -48.6,-167.3 -302.9,-248.8 -105,-33.6 -184.7,-199.2 -184.7,-199.2 0,0 1260.7,-81 1771.7,-152.7 449.2,-63 1923.4,-299.2 2669.5,-325.1 204.3,-7 387.3,-130.4 467.7,-318.3 32,-74.7 54.7,-155.8 54.7,-235.3 L 17227,3865.3 15135.5,3576.8 14366.8,2081.1 H 6028.39 l -502.1,1371.8 -2225.97,-88.4 -533.17,-1283.4 c 0,0 -719.69,421.4 -1078.33,511 -358.64,89.7 -322.78,2689.8 -170.36,2833.3 152.42,143.5 1542.16,53.8 2124.95,170.4"
         style="fill:#f7cc7f;fill-opacity:1;fill-rule:nonzero;stroke:none"
         id="path112" /><path
         d="m 1120.21,4006.1 c 22.39,185.4 187.39,320 373.59,305.9 399.58,-30.1 1061.07,-99.9 1273.35,-240.5 311.4,-206.2 427.97,-914.5 427.97,-914.5 l -427.97,-1075.9 -1146.08,516 c 0,0 -633.625,310.2 -500.86,1409"
         style="fill:#eaa93f;fill-opacity:1;fill-rule:nonzero;stroke:none"
         id="path114" /><path
         d="m 15992.7,4232.9 v 0 c -898,0 -1625.9,-727.9 -1625.9,-1625.8 v -526 h 3251.7 v 526 c 0,897.9 -727.9,1625.8 -1625.8,1625.8"
         style="fill:#183658;fill-opacity:1;fill-rule:nonzero;stroke:none"
         id="path116" /><path
         d="m 4393,4232.9 v 0 c -897.93,0 -1625.85,-727.9 -1625.85,-1625.8 v -526 h 3251.69 v 526 c 0,897.9 -727.91,1625.8 -1625.84,1625.8"
         style="fill:#183658;fill-opacity:1;fill-rule:nonzero;stroke:none"
         id="path118" /><path
         d="m 13861.7,5389.5 c 0,0 135.1,-103.3 269.6,-40.6 134.5,62.8 156.1,175.1 156.1,175.1 h -82 l -187.7,-19.7 -156,-114.8"
         style="fill:#eaa93f;fill-opacity:1;fill-rule:nonzero;stroke:none"
         id="path120" /><path
         d="m 6594.8,2441.6 2887.01,-87.2 c 14.21,49.1 95.03,340.6 152.96,802.9 58.31,465.5 104.65,1204 -4.99,2082.1 l -4459.56,190.2 c 35.87,-101 252.02,-714.9 287.51,-932.9 39.45,-19.9 313.38,-164.2 579.82,-466.1 168.25,-190.7 300.79,-406 393.95,-640 115.29,-289.7 170.22,-608.9 163.3,-949 z m 2901.89,-107.9 -7.71,0.3 -2914.81,88.1 0.24,10 c 18.43,771.9 -289.68,1287.7 -551.4,1584.5 -283.8,321.8 -575.84,462.8 -578.76,464.2 l -4.82,2.3 -0.82,5.3 c -35.3,229.5 -289.85,941.4 -292.41,948.5 l -5.06,14.2 14.98,-0.7 4491.55,-191.6 1.06,-8.5 c 111.29,-884.1 64.68,-1627.8 5.98,-2096.1 -63.63,-507.5 -154.86,-810.1 -155.77,-813.1 l -2.25,-7.4"
         style="fill:#eaa93f;fill-opacity:1;fill-rule:nonzero;stroke:none"
         id="path122" /><path
         d="m 13649.3,2299.1 -5.8,0.1 -4154.3,34.8 0.18,20.2 4148.32,-34.8 c 168.1,312.9 233.9,2514.5 238.6,2681.1 l -4238.15,238.5 1.14,20.2 4257.71,-239.7 -0.3,-9.8 c -2.6,-97.8 -65.9,-2397.8 -244.4,-2705.5 l -3,-5.1"
         style="fill:#eaa93f;fill-opacity:1;fill-rule:nonzero;stroke:none"
         id="path124" /><path
         d="m 5179.6,5491.2 c 0,0 11.96,283.9 101.62,409.4 89.66,125.5 1321,717.3 1814.13,851.8 493.13,134.5 2214.61,188.3 2214.61,188.3 L 9596.88,5362.6 5179.6,5491.2"
         style="fill:#eaa93f;fill-opacity:1;fill-rule:nonzero;stroke:none"
         id="path126" /><path
         d="M 6679.89,5512.4 9329.17,5458.3 9077.03,6845 c 0,0 -1512.81,-47.2 -1946.18,-165.4 -121.94,-33.3 -306.02,-104.1 -509.36,-191.1 19.29,-311.8 43.9,-715.4 58.4,-976.1"
         style="fill:#183658;fill-opacity:1;fill-rule:nonzero;stroke:none"
         id="path128" /><path
         d="M 6507.01,6438.7 C 6011.95,6220 5453.29,5932.3 5400.77,5858.8 c -78.8,-110.3 -107.23,-318 -107.23,-318 l 1244.82,-25.5 -31.35,923.4"
         style="fill:#183658;fill-opacity:1;fill-rule:nonzero;stroke:none"
         id="path130" /><path
         d="m 9309.96,6940.7 c 0,0 1458.44,-65.8 1787.24,-149.5 328.8,-83.7 1132.5,-498.2 1476.4,-729.2 259.7,-174.4 587.3,-479.6 785.5,-672.5 63.8,-62.2 17.5,-170.2 -71.5,-166.9 l -3690.72,140 -286.92,1578.1"
         style="fill:#eaa93f;fill-opacity:1;fill-rule:nonzero;stroke:none"
         id="path132" /><path
         d="m 9537.01,6845 c 0,0 1296.09,-58.4 1588.29,-132.8 292.1,-74.3 1006.4,-442.7 1312,-648 230.8,-155 641.6,-479.3 817.7,-650.8 56.7,-55.2 15.6,-151.2 -63.5,-148.2 L 9791.98,5442.7 9537.01,6845"
         style="fill:#183658;fill-opacity:1;fill-rule:nonzero;stroke:none"
         id="path134" /><path
         d="m 12024.9,6833.5 -126.5,-58.2 c -22.8,-10.5 -25.4,-41.9 -4.6,-56 l 1967.9,-1329.8 c 0,0 292.9,-92.6 343.7,134.5 0,0 -1871.5,1166.4 -2180.5,1309.5"
         style="fill:#183658;fill-opacity:1;fill-rule:nonzero;stroke:none"
         id="path136" /><path
         d="m 18039.9,4541.9 c 0,0 -100.5,-51.4 -127.4,-130.4 -26.9,-79.1 80.2,-303.6 372.5,-292.8 292.4,10.7 -245.1,423.2 -245.1,423.2"
         style="fill:#cf283c;fill-opacity:1;fill-rule:nonzero;stroke:none"
         id="path138" /><path
         d="m 3136.24,2635.3 c 0,-730.5 591.98,-1322.7 1322.22,-1322.7 730.24,0 1322.21,592.2 1322.21,1322.7 0,730.5 -591.97,1322.7 -1322.21,1322.7 -730.24,0 -1322.22,-592.2 -1322.22,-1322.7"
         style="fill:#1a1a1a;fill-opacity:1;fill-rule:nonzero;stroke:none"
         id="path140" /><path
         d="m 3538.5,2635.3 c 0,-508.2 411.88,-920.3 919.96,-920.3 508.08,0 919.95,412.1 919.95,920.3 0,508.2 -411.87,920.3 -919.95,920.3 -508.08,0 -919.96,-412.1 -919.96,-920.3"
         style="fill:#9e9da2;fill-opacity:1;fill-rule:nonzero;stroke:none"
         id="path142" /><path
         d="m 3843.21,2635.3 c 0,-339.9 275.46,-615.5 615.25,-615.5 339.79,0 615.24,275.6 615.24,615.5 0,339.9 -275.45,615.5 -615.24,615.5 -339.79,0 -615.25,-275.6 -615.25,-615.5"
         style="fill:#d8d9dd;fill-opacity:1;fill-rule:nonzero;stroke:none"
         id="path144" /><path
         d="m 14684.5,2635.3 c 0,-730.5 592,-1322.7 1322.2,-1322.7 730.3,0 1322.3,592.2 1322.3,1322.7 0,730.5 -592,1322.7 -1322.3,1322.7 -730.2,0 -1322.2,-592.2 -1322.2,-1322.7"
         style="fill:#1a1a1a;fill-opacity:1;fill-rule:nonzero;stroke:none"
         id="path146" /><path
         d="m 15086.8,2635.3 c 0,-508.2 411.9,-920.3 919.9,-920.3 508.1,0 920,412.1 920,920.3 0,508.2 -411.9,920.3 -920,920.3 -508,0 -919.9,-412.1 -919.9,-920.3"
         style="fill:#9e9da2;fill-opacity:1;fill-rule:nonzero;stroke:none"
         id="path148" /><path
         d="m 15391.5,2635.3 c 0,-339.9 275.4,-615.5 615.2,-615.5 339.8,0 615.3,275.6 615.3,615.5 0,339.9 -275.5,615.5 -615.3,615.5 -339.8,0 -615.2,-275.6 -615.2,-615.5"
         style="fill:#d8d9dd;fill-opacity:1;fill-rule:nonzero;stroke:none"
         id="path150" /><path
         d="m 14472.3,2184 -8552.07,109.2 c -93.3,1.2 -77.56,-466.4 -97.33,-522.4 -20.64,-58.5 63.72,-112.7 177.43,-112.7 h 8368.77 c 164.2,0 215.4,83.9 194,169.1 -10.1,39.9 13.9,355.5 -90.8,356.8"
         style="fill:#eaa93f;fill-opacity:1;fill-rule:nonzero;stroke:none"
         id="path152" /><path
         d="m 17605.5,3443.8 c -64.3,2.6 -113.9,-90.6 -105.6,-196 9.1,-117.1 -53,-1166.7 118.6,-1166.7 L 18820,2352 c 442.5,243.1 442.3,783.1 442.3,783.1 0,134.5 -64.9,244.5 -146.2,247.8 l -1510.6,60.9"
         style="fill:#eaa93f;fill-opacity:1;fill-rule:nonzero;stroke:none"
         id="path154" /><path
         d="m 6785.67,4923.3 -943.91,50.6 c -43.78,2.3 -77.37,39.7 -75.02,83.5 l 1.04,19.4 c 2.35,43.8 39.74,77.4 83.53,75 l 943.91,-50.6 c 43.78,-2.4 77.37,-39.8 75.02,-83.6 l -1.04,-19.3 c -2.35,-43.8 -39.74,-77.4 -83.53,-75"
         style="fill:#eaa93f;fill-opacity:1;fill-rule:nonzero;stroke:none"
         id="path156" /><path
         d="m 11035.2,4695.3 -999,53.6 c -28.5,1.5 -50.48,25.9 -48.95,54.5 l 3.99,74.4 c 1.53,28.6 25.96,50.5 54.56,49 l 998.9,-53.6 c 28.6,-1.5 50.5,-26 49,-54.6 l -4,-74.3 c -1.5,-28.6 -25.9,-50.6 -54.5,-49"
         style="fill:#eaa93f;fill-opacity:1;fill-rule:nonzero;stroke:none"
         id="path158" /><path
         d="m 1448.88,5208.3 h 928.02 c 79.49,0 133.34,-81 102.61,-154.3 l -104.25,-248.7 c -99.38,-237.2 -331.38,-391.5 -588.49,-391.5 h -337.89 c -66.13,0 -119.74,53.6 -119.74,119.8 v 554.9 c 0,66.1 53.61,119.8 119.74,119.8"
         style="fill:#cf283c;fill-opacity:1;fill-rule:nonzero;stroke:none"
         id="path160" /><path
         d="m 18203.3,4613 c 0,0 -236.1,-33.4 -196.3,-188.8 27.5,-107.1 183.6,-235.8 278,-305.5 44.8,-33.1 98.4,-51.8 154,-53.9 l 545.3,-20.2 c 0,0 52.5,167 -127.2,408 -69.5,93.3 -178.4,149 -294.8,151.8 l -359,8.6"
         style="fill:#eafcfc;fill-opacity:1;fill-rule:nonzero;stroke:none"
         id="path162" /><path
         d="m 7840.18,5488.7 -675.53,13.8 675.53,-13.8 v 0 m -311.32,1256.9 v 0 h 0.06 c -0.05,0 -0.01,0 -0.06,0"
         style="fill:#eab152;fill-opacity:1;fill-rule:nonzero;stroke:none"
         id="path164" /><path
         d="m 7840.18,5488.7 -675.53,13.8 364.21,1243.1 c 0.05,0 0.01,0 0.06,0 l 591.23,51.5 -279.97,-1308.4"
         style="fill:#2d4a69;fill-opacity:1;fill-rule:nonzero;stroke:none"
         id="path166" /><path
         d="m 8128.69,5482.8 c -46.21,1 -103.5,2.1 -117.15,2.4 -0.03,0 -0.05,0 -0.07,0 l 117.22,-2.4 m 376.81,1337.4 0.38,0.1 c -0.15,-0.1 -0.23,-0.1 -0.38,-0.1"
         style="fill:#eab152;fill-opacity:1;fill-rule:nonzero;stroke:none"
         id="path168" /><path
         d="m 8190.87,5481.6 c 0,0 -28.07,0.5 -62.18,1.2 l -117.22,2.4 c -23.04,3.2 278.8,1322.9 278.8,1322.9 l 215.23,12.1 c 0.15,0 0.23,0 0.38,0.1 L 8190.87,5481.6"
         style="fill:#2d4a69;fill-opacity:1;fill-rule:nonzero;stroke:none"
         id="path170" /><path
         d="m 10991.5,6736.7 c -28.2,4.1 -59,8 -91.8,12 l 92.5,-9 -0.7,-3"
         style="fill:#eab152;fill-opacity:1;fill-rule:nonzero;stroke:none"
         id="path172" /><path
         d="m 10695.3,5396.8 -478.4,23.7 345.1,1361 337.7,-32.8 c 32.8,-4 63.6,-7.9 91.8,-12 l -296.2,-1339.9"
         style="fill:#2d4a69;fill-opacity:1;fill-rule:nonzero;stroke:none"
         id="path174" /><path
         d="m 11233.4,5367.4 -165.8,8.7 c -6.1,0.4 -10.8,0.6 -13.6,0.7 v 0 0 l 239.9,1279.3 c 58.9,-22.8 123.9,-50.2 192.5,-80.8 l -253,-1207.9"
         style="fill:#2d4a69;fill-opacity:1;fill-rule:nonzero;stroke:none"
         id="path176" /><path
         d="m 3882.04,5705.3 c 0,0 234.19,-97.8 440.41,0 206.22,97.9 1990.47,1023.4 2115.99,1076.2 125.52,52.8 -97.02,52 -97.02,52 0,0 -719.07,-289.5 -1055.2,-468.6 L 3882.04,5705.3"
         style="fill:#183658;fill-opacity:1;fill-rule:nonzero;stroke:none"
         id="path178" /><path
         d="m 13448.8,5641.8 c 10.3,0 275.6,-63.3 275.6,-63.3 77.4,-23.6 128.2,-97.5 122.6,-178.2 l -8.1,-115.5 c -5.4,-76.9 -60.9,-141.1 -136.4,-157.5 -167,-36.2 -299.4,-51.1 -299.4,-40.5 0,15.3 45.7,555 45.7,555"
         style="fill:#eaa93f;fill-opacity:1;fill-rule:nonzero;stroke:none"
         id="path180" /><path
         d="m 20488.2,8847.8 c -153.1,10.6 -761.1,2.1 -784.8,5.1 -23.7,3.1 -177.8,270.9 -204.2,242.7 -26.5,-28.3 85.9,-133 50.5,-159.4 -10.3,-7.6 -72.4,17.3 -122.4,20.4 l 23.3,-277.4 c 68.9,6.7 127.6,36.5 242.5,3.6 63.3,-18.2 547.5,-83.1 956.8,-122.8 419.6,-40.7 763.8,-56.1 763.8,-56.1 l 34.4,322 c 0,0 -790.7,10.1 -959.9,21.9"
         style="fill:#f7a491;fill-opacity:1;fill-rule:nonzero;stroke:none"
         id="path182" /><path
         d="m 21366.8,3895.3 11.9,-212 c 4.3,-26.8 21.3,-93.2 21.3,-117.6 0,-91.7 -400.6,77.9 -310.9,118.5 8.2,3.7 50.7,31.5 53.4,62.7 4.1,48.1 14.6,145.4 14.6,145.4 l 209.7,3"
         style="fill:#f7a491;fill-opacity:1;fill-rule:nonzero;stroke:none"
         id="path184" /><path
         d="m 21090.1,3685.1 c 0,0 94.1,-28.1 142.3,-35.1 48.2,-7 111.7,52.1 145.7,36.1 37.5,-17.6 33.8,-190.5 33.8,-190.5 0,0 -502.1,-30.1 -644,16.4 -56.2,18.5 130,107.7 322.2,173.1"
         style="fill:#184655;fill-opacity:1;fill-rule:nonzero;stroke:none"
         id="path186" /><path
         d="m 22249.5,3875 11.8,-212 c 4.3,-26.8 21.3,-93.2 21.3,-117.6 0,-91.7 -400.6,77.9 -310.8,118.5 8.1,3.7 63.3,52.3 66,83.5 4.1,48.1 1.9,124.6 1.9,124.6 l 209.8,3"
         style="fill:#f7a491;fill-opacity:1;fill-rule:nonzero;stroke:none"
         id="path188" /><path
         d="m 21972.8,3664.8 c 0,0 94.1,-28.1 142.2,-35.1 48.2,-7 111.7,52.1 145.8,36.1 37.5,-17.5 39,-175.6 39,-175.6 0,0 -536.8,-39.6 -663,-2.4 -56.7,16.7 143.7,111.6 336,177"
         style="fill:#184655;fill-opacity:1;fill-rule:nonzero;stroke:none"
         id="path190" /><path
         d="m 21614.6,6928.5 -169.4,-74.4 -356.3,-1733.1 14.5,-1299.3 285.6,-6.8 c 0,0 132.8,1136.6 132.8,1224.6 0,88.1 615.4,1541.4 615.4,1541.4 l -522.6,347.6"
         style="fill:#355389;fill-opacity:1;fill-rule:nonzero;stroke:none"
         id="path192" /><path
         d="m 21745.3,6833.2 c 0,0 124.8,-1335.4 124.8,-1560.5 0,-225 101.2,-1484.8 101.2,-1484.8 l 286.3,1.7 c 0,0 20.7,383.9 51.4,948.9 4.8,88.4 -6.2,267 0,358.6 44.5,658.7 132.6,1278.9 90.5,1524.7 -6.8,39.6 -19.5,143 -44.3,169.2 -187.5,197.5 -609.9,42.2 -609.9,42.2"
         style="fill:#466eb6;fill-opacity:1;fill-rule:nonzero;stroke:none"
         id="path194" /><path
         d="m 21631.1,8816.9 c -71.2,28.7 -561.2,37.1 -561.2,37.1 0,0 -47.8,-352.7 14,-432.9 0,0 582.2,12.6 571.8,-24.9 l -24.6,420.7"
         style="fill:#b75742;fill-opacity:1;fill-rule:nonzero;stroke:none"
         id="path196" /><path
         d="m 22684.2,8908.9 c 124.3,-33.3 145.1,-512.7 145.1,-512.7 l 394.2,45.2 c 0,0 -71.9,499.9 -280.1,708.9 -208.2,208.9 -734.4,81.2 -934.4,-48.9 -200.1,-130.1 -113.3,-295.8 -113.3,-295.8 0,0 664.1,136.6 788.5,103.3"
         style="fill:#13375b;fill-opacity:1;fill-rule:nonzero;stroke:none"
         id="path198" /><path
         d="m 23080.4,8509.8 c 20.6,-455.3 148.3,-495.7 150.8,-502 2.7,-0.5 104.6,-78.9 217.4,24.8 l -37.5,38 c -16.1,-16.4 -40.7,-31.3 -64.2,-37.9 -52.4,-13.6 -86.3,12.5 -90.5,13.7 -2.7,2.3 -29.5,18.4 -42.9,40.6 -65.5,87.5 -96.7,315 -105.6,423.7 l -27.5,-0.9"
         style="fill:#355389;fill-opacity:1;fill-rule:nonzero;stroke:none"
         id="path200" /><path
         d="m 21755.2,8842.6 c 0,0 55.3,-217 61.6,-393.3 6.3,-176.3 127.9,-323.4 143.7,-764.7 15.8,-441.4 78.8,-847 78.8,-847 0,0 489.7,-34.1 586.1,69.8 96.4,103.9 54.7,1048.7 -40.6,1507.9 -95.4,459.3 323.7,584.6 106,735 -217.8,150.5 -501,48.5 -620.9,7.7 -119.9,-40.9 -318.2,-218.1 -314.7,-315.4"
         style="fill:#184655;fill-opacity:1;fill-rule:nonzero;stroke:none"
         id="path202" /><path
         d="m 22563.8,8477.5 c 0,0 57.8,-352.3 14.3,-709.2 -43.4,-356.9 25.8,-1061 25.8,-1061 0,0 364.7,-254.7 471.9,-52.5 20.2,38 68.3,489 72.6,677.6 4.6,200.3 -22.9,899.8 -32.2,1126.5 -2,47.6 -16,93.8 -40.9,134.3 -79.7,130.2 -262.6,418.4 -326.3,428.3 -83,13 -228.8,-166.5 -185.2,-544"
         style="fill:#f7cc7f;fill-opacity:1;fill-rule:nonzero;stroke:none"
         id="path204" /><path
         d="m 23125.8,8215.6 c -51.3,-50.1 -377.4,-363.7 -541,-386.3 1.9,20 3.5,39.8 5,59.6 127.9,20.5 416.3,286.2 533.2,399.5 0.9,-23.2 1.8,-47.6 2.8,-72.8"
         style="fill:#13375b;fill-opacity:1;fill-rule:nonzero;stroke:none"
         id="path206" /><path
         d="m 22564.7,7372.8 c -0.4,19.5 -0.6,39.1 -0.8,58.5 98.9,-42.4 446.9,-15.3 584.8,0 0.2,-20.4 0.3,-39.2 0.2,-56.1 -126.4,-14.1 -466.3,-51.3 -584.2,-2.4"
         style="fill:#13375b;fill-opacity:1;fill-rule:nonzero;stroke:none"
         id="path208" /><path
         d="m 23115.9,6917.2 c -2,-18.5 -4.1,-36.6 -6.1,-54 -137.5,-27.6 -402.4,89.9 -529.5,145 -1.3,20.8 -2.6,42.3 -3.9,64.4 118.2,-51.4 418.6,-178.2 539.5,-155.4"
         style="fill:#13375b;fill-opacity:1;fill-rule:nonzero;stroke:none"
         id="path210" /><path
         d="m 23123.9,6993.6 c -61.1,-25.6 -441.4,-188.8 -528.2,-194.3 -1.4,16.1 -2.8,34 -4.4,53.4 61.2,5.7 350.8,126.7 538.7,205.1 -1.9,-21.4 -4,-42.9 -6.1,-64.2"
         style="fill:#13375b;fill-opacity:1;fill-rule:nonzero;stroke:none"
         id="path212" /><path
         d="m 22691,6834.3 v 0 c -77.8,0 -140.8,63.1 -140.8,140.8 v 593.7 c 0,77.7 63,140.7 140.8,140.7 77.7,0 140.7,-63 140.7,-140.7 v -593.7 c 0,-77.7 -63,-140.8 -140.7,-140.8"
         style="fill:#50bfa5;fill-opacity:1;fill-rule:nonzero;stroke:none"
         id="path214" /><path
         d="m 22550.2,7390 h 281.5 v 59 h -281.5 v -59"
         style="fill:#13375b;fill-opacity:1;fill-rule:nonzero;stroke:none"
         id="path216" /><path
         d="m 21932.7,8844.3 c 0,0 148.6,13.6 208,-127.2 59.3,-140.9 186.1,-721 159.1,-1046 -27,-325 121.4,-1242.1 121.4,-1242.1 -517.9,-268.1 -1067.2,231.7 -1067.2,231.7 0,0 -57.4,1404.1 -7,1633.8 105.2,480.2 307.6,557.6 307.6,557.6 l 278.1,-7.8"
         style="fill:#f47458;fill-opacity:1;fill-rule:nonzero;stroke:none"
         id="path218" /><path
         d="m 22344.2,6604.3 c 56.1,91.5 68.7,78.5 75.5,90.4 8.2,14.1 -0.9,231.8 -0.9,231.8 0,0 -22.4,641.8 -24.8,676.4 l -287.3,592.6 248.3,232.6 c 0,0 295.7,-653.3 305.3,-690.3 9.6,-37 -58.8,-909.3 -62.4,-986.3 0,0 28.8,-93 45,-152.1 16.2,-59.1 5.8,-122.7 7.8,-140.1 0.3,-2.6 3.9,-60.9 -10.5,-134.1 -12.3,-63 -28.8,2.3 -28.8,2.3 0,0 2.5,120.8 -6.9,119.3 -7.2,-1.2 -4.7,-67.3 -17.6,-137.2 -3.4,-18 -6.7,-35.7 -9.9,-51.9 -8.5,-42.7 -36.4,-49.9 -34.5,-3.9 0.6,16.3 2.4,43.3 6.3,62.3 4.2,20.7 1.5,40.9 2.5,58.8 1.9,35.4 3.7,61.3 2.3,60.5 -2,-0.9 -6.4,6.3 -10.5,-12.6 -5,-22.9 -5,-73.6 -14.9,-106.6 -5.5,-18.7 -14.8,-58.5 -14.8,-58.5 0,0 -25.1,-57.6 -28.8,-57.3 -20.4,1.8 -14.1,46 -3.3,70.4 -0.9,19.1 10,60.7 10,60.7 0,0 3.8,89 -8.5,89.6 -5.3,0.3 -13.9,-54.1 -30.6,-106.1 -15.5,-48.4 -38.8,-94.7 -48.6,-93.1 -16.6,2.7 -5,58.2 -5,58.2 0,0 10.2,38.4 12.6,51.4 2.9,15.3 8,61.6 8,61.6 0,0 10.4,162 -1.3,161.6 -11.7,-0.5 -41.4,-13.9 -45.4,-23.8 -4,-9.8 -2.2,-31.7 -6.3,-41.6 -4,-9.8 -17.5,-19.2 -29.7,-15.2 -12.1,4 -10.3,59.1 -10.3,59.1 0,0 1.8,44.7 18,71.1"
         style="fill:#f8a492;fill-opacity:1;fill-rule:nonzero;stroke:none"
         id="path220" /><path
         d="m 22477.3,8254.6 -325.5,-252.5 c 0,0 -143.8,137.1 -216,288.7 -73.1,153.4 15.9,557.8 93.7,537 174,-46.5 447.8,-573.2 447.8,-573.2"
         style="fill:#b75742;fill-opacity:1;fill-rule:nonzero;stroke:none"
         id="path222" /><path
         d="m 21870.5,9145.1 48.7,-321.1 c 0,0 -177.9,-382.3 -284.1,-349.1 -89.1,27.8 -34.2,366 -34.2,366 0,0 48.5,181.7 34,272.6 -14.6,90.9 235.6,31.6 235.6,31.6"
         style="fill:#f7a491;fill-opacity:1;fill-rule:nonzero;stroke:none"
         id="path224" /><path
         d="m 21634.9,9113.5 c -14.6,90.9 235.6,31.6 235.6,31.6 l 4.1,-26.7 c -7.4,-17.8 -16.3,-33 -27.2,-44.7 -55.9,-60.2 -143.2,-96.3 -218.8,-99 7.6,49 12.2,101.5 6.3,138.8"
         style="fill:#f47458;fill-opacity:1;fill-rule:nonzero;stroke:none"
         id="path226" /><path
         d="m 21911.6,9599.3 c 7.1,2.6 56.7,-365.7 -37.5,-467 -94.1,-101.3 -277.6,-134.5 -343.4,-54.7 -72.8,88.3 -69.1,484.1 77.3,588.3 146.4,104.2 303.6,-66.6 303.6,-66.6"
         style="fill:#f7a491;fill-opacity:1;fill-rule:nonzero;stroke:none"
         id="path228" /><path
         d="m 21663.7,9862.9 c 113.1,-23.1 186.4,-92.3 213.4,-121.7 51.3,-6.1 121.2,-34.5 193.3,-153.9 88.7,-146.8 23.2,-309.4 -80,-389.3 -103.3,-79.7 -101.8,-171.9 -101.8,-171.9 l -16.3,47.6 c -12.1,36.2 -17,74.5 -13,112.4 2.5,22.7 7.3,47.3 16.7,67.5 24.9,53.3 -53.3,88.7 -75.2,133 -16.9,34.2 -17.7,112.3 -44.3,168.7 l -31.7,43.1 c 0,0 -73.3,57 -144.9,40.9 -71.7,-16.1 -61.4,253.2 83.8,223.6"
         style="fill:#184655;fill-opacity:1;fill-rule:nonzero;stroke:none"
         id="path230" /><path
         d="m 21805.6,9321.1 c -0.7,-44.9 19.7,-81.7 45.6,-82.2 26,-0.4 47.6,35.7 48.3,80.6 0.8,44.9 -19.6,81.7 -45.6,82.1 -25.9,0.5 -47.5,-35.6 -48.3,-80.5"
         style="fill:#f7a491;fill-opacity:1;fill-rule:nonzero;stroke:none"
         id="path232" /><path
         d="m 21746.9,8163.6 c -6.8,279.7 10.5,664.2 277.4,773.3 95.3,40 211.7,-5 300,-37.8 -108.3,15.1 -210.5,-26.6 -263.3,-56.2 -219.6,-111.1 -217.9,-429.2 -209.9,-676.9 20,-622.9 497.3,-556.9 497.3,-556.9 l 11.2,-41.5 c 0,0 -179.4,-58.9 -408.1,54 -182.4,90 -204.6,542 -204.6,542"
         style="fill:#184655;fill-opacity:1;fill-rule:nonzero;stroke:none"
         id="path234" /><path
         d="m 19536.3,8730.8 c 1.3,-23.8 -15.6,-45 -39.2,-48.9 -44.4,-7.5 -119.2,-11.3 -136.6,43 -25.1,78.4 39,246.2 66.8,231.7 27.9,-14.5 136,-149.4 116.9,-176.9 -11.2,-15.9 -8.8,-31.5 -7.9,-48.9"
         style="fill:#e59588;fill-opacity:1;fill-rule:nonzero;stroke:none"
         id="path236" /><path
         d="m 24704.9,4996.3 c -8.2,133 -73,355.4 -73,355.4 l 230.5,1535.8 -593,219 -170.8,1.5 c 0,0 -89.1,-356.7 -57.8,-823.9 16.8,-249.7 302.5,-2429.1 302.5,-2429.1 h 0.1 c -4.1,-63.5 -13.6,-153.2 -35.8,-179.5 -21.4,-25.3 -46.2,-50.5 -70.9,-66.6 -9.7,-6.3 -36.7,-24.6 -44.1,-28.4 -113.7,-58.5 -142.4,-76.9 -178,-104.8 -21.8,-17 -39.6,-35.5 -12.6,-35 l 495.1,8.5 c 0,0 21.8,9.5 40.9,47.5 19.1,38 -22.5,121 -30,161.4 -5.1,27.4 -6,75.7 -5.2,125.9 0.4,1.8 210.3,1079.5 202.1,1212.3"
         style="fill:#f79c8d;fill-opacity:1;fill-rule:nonzero;stroke:none"
         id="path238" /><path
         d="m 24236.8,3609 c 130.9,-35.8 227.7,-11.5 281.9,11.8 13.9,-42.2 32.4,-95 22.6,-125.4 -12,-37.4 -29.1,-45.8 -44.2,-46.2 -119.6,-3.3 -438.1,-7.9 -529.3,-9.2 -12.7,-0.1 -19.8,15.7 -11.6,26.1 22.6,28.7 270.8,136.5 280.6,142.9"
         style="fill:#184655;fill-opacity:1;fill-rule:nonzero;stroke:none"
         id="path240" /><path
         d="m 25960.7,4949.4 c 63.2,25.4 197.2,41.8 202.3,29.2 6.1,-15.1 178.9,-558 119.8,-641 -35.6,-50 -81.7,25.4 -153.4,133 20.8,151.6 -126.6,475 -168.7,478.8"
         style="fill:#184655;fill-opacity:1;fill-rule:nonzero;stroke:none"
         id="path242" /><path
         d="m 24196.7,7330.8 692.5,72.8 1.3,-78 c 23.1,-45.3 319.8,-139.2 293.8,-604.6 -15.2,-271.9 -282.5,-1190.9 -218.6,-1228.2 0,0 453.4,-101.1 899.9,-501.9 47.4,-23.3 80.9,-38.2 88.8,-40.8 8.3,-2.8 53,3.1 61.8,0.4 135.4,-147.7 134.2,-328.3 113.3,-479.9 -56.3,88.1 -125.2,212.4 -147,221.5 -15.8,6.6 -96.5,42.6 -184.8,79.8 -257.7,97.1 -1068.8,373.5 -1212.9,458.2 -67.3,39.6 -292.4,1405.3 -308.9,1485.7 -9.7,47.2 -32.4,222.4 -64.8,332.9 -26.8,91.6 -31.7,188.2 -14.4,282.1"
         style="fill:#f79c8d;fill-opacity:1;fill-rule:nonzero;stroke:none"
         id="path244" /><path
         d="m 24343.3,3855 168.8,-22.8 c 40.7,211.2 199.9,1048.1 192.8,1164.1 -8.2,133 -73,355.4 -73,355.4 l 230.5,1535.8 -593,219 -170.8,1.5 c 0,0 -89.1,-356.7 -57.8,-823.9 16.8,-249.7 302.5,-2429.1 302.5,-2429.1"
         style="fill:#b75742;fill-opacity:1;fill-rule:nonzero;stroke:none"
         id="path246" /><path
         d="m 25310.6,7285.6 c -128.3,91 -252.3,7.4 -404.1,-38.6 -101.8,-31 -229.6,102.2 -275.2,234.6 -115.4,335.1 -78.3,404.2 -316.2,425.4 -572.9,51.1 -207.2,833.3 -164.6,962.5 42.7,129.1 39.2,398.4 250.7,507.5 661.5,341.5 797.5,-243.4 905.8,-357.5 108.4,-114 238.1,-103.6 403.7,-376.5 475.3,-783.6 -59,-1411.4 -293.6,-1394 -43.5,3.2 -78.4,16.7 -106.5,36.6"
         style="fill:#184655;fill-opacity:1;fill-rule:nonzero;stroke:none"
         id="path248" /><path
         d="m 25804,4769.2 48.7,233.2 c -442.3,391.2 -887,490.4 -887,490.4 -63.9,37.3 203.4,956.3 218.6,1228.2 26,465.4 -270.7,559.3 -293.8,604.6 l -1.3,78 -692.5,-72.8 c -17.3,-93.9 -12.4,-190.5 14.4,-282.1 32.4,-110.5 55.1,-285.7 64.8,-332.9 16.4,-80.4 241.6,-1446.1 308.9,-1485.7 144.1,-84.7 955.2,-361.1 1212.9,-458.2 2.1,-0.9 4.2,-1.8 6.3,-2.7"
         style="fill:#f47458;fill-opacity:1;fill-rule:nonzero;stroke:none"
         id="path250" /><path
         d="m 23485.9,10414.3 c -14.6,34.7 -32.7,67.8 -54,98.8 l -23.4,34.2 c -2.8,6 -5.1,11.1 -6.2,14.6 -10.3,30.2 -2.5,127.5 -2.5,127.5 l 205,-49.6 45,-118.3 c 45.6,21.1 123.5,179.7 151.9,141.6 33.6,-45 -93,-240 -103,-292.7 -10,-52.8 140.5,-822.5 174.8,-985.3 34.4,-162.7 234.7,-641.9 234.7,-641.9 l -261.1,-192.3 c 0,0 -291.1,590.7 -313.5,802.2 -2.3,22.2 -5,55.5 -7.8,96.8 l -39.9,964.4"
         style="fill:#f7a491;fill-opacity:1;fill-rule:nonzero;stroke:none"
         id="path252" /><path
         d="m 25039.3,8526.2 c 0,0 691.1,-17.2 842.8,-29.7 151.8,-12.4 702.3,33.4 723.7,35.8 21.3,2.5 162.3,241.4 185.8,215.7 23.4,-25.6 -78.5,-118.4 -47,-142.5 31.5,-24 370.2,29.9 365.7,4.8 -8.4,-46.8 -206,-40.8 -205.8,-63.5 0.2,-22.6 206.8,12.7 220.8,-24.8 14,-37.6 -198.7,-15.3 -207.2,-32.1 -8.5,-16.7 197.3,-47.4 176.2,-82.3 -11.4,-19 -182.3,31.6 -181.5,5.8 0.9,-25.8 125.6,-84.7 110.3,-105.2 -15.3,-20.6 -97.9,63.1 -170.2,64.2 -72.4,1 -124.2,38.8 -239.7,7.1 -115.5,-31.7 -511.4,-143 -755.5,-178.7 -249.5,-36.6 -829.4,-63.5 -829.4,-63.5 l 11,388.9"
         style="fill:#f7a491;fill-opacity:1;fill-rule:nonzero;stroke:none"
         id="path254" /><path
         d="m 23946.5,7752.5 c -34.7,367.5 46.1,438.9 51.3,476.7 -34.5,118.4 -160.3,293.9 -186.7,343.5 0,0 170.7,193.4 297.2,191.8 0,0 134.6,-170 234.5,-222.2 1.5,0.4 35.4,-15.1 50.3,-15 96.4,0.7 433.5,11 496.5,-7.8 l 75.7,-524.1 c -18.2,-29.8 -40.2,-628.8 -77.4,-678.1 -37.3,-49.3 -691.3,-270.5 -781.2,-212.6 -3.6,2.3 -138.5,417.6 -160.2,647.8"
         style="fill:#f7a491;fill-opacity:1;fill-rule:nonzero;stroke:none"
         id="path256" /><path
         d="m 24714,8507.4 c 62.2,29.7 516.4,28.7 516.4,28.7 0,0 60.2,-354.7 9.4,-430 0,0 -327,-121.3 -315.5,-154.3 l -210.3,555.6"
         style="fill:#355389;fill-opacity:1;fill-rule:nonzero;stroke:none"
         id="path258" /><path
         d="m 24044.1,7305 c -39.7,139 -85.7,321.1 -97.6,447.5 -34.7,367.5 46.1,438.9 51.3,476.7 -34.5,118.4 -160.3,293.9 -186.7,343.6 0,0 170.7,193.3 297.2,191.7 0,0 134.6,-170 234.5,-222.2 1.5,0.4 35.4,-15.1 50.3,-15 96.4,0.7 433.5,11 496.5,-7.8 l 75.7,-524.1 c -12.5,-20.5 -26.8,-309.3 -46.5,-504.3 -104.7,-49.1 -398,-164.7 -874.7,-186.1"
         style="fill:#355389;fill-opacity:1;fill-rule:nonzero;stroke:none"
         id="path260" /><path
         d="m 24613,8719.2 c 0,0 -35,-180.7 -28,-252 7,-71.3 -26.6,-301 -177.5,-301.8 -150.9,-0.7 -28.6,292.1 -14.4,361.9 14.2,69.9 17.5,286.1 17.5,286.1 l 202.4,-94.2"
         style="fill:#f7a491;fill-opacity:1;fill-rule:nonzero;stroke:none"
         id="path262" /><path
         d="m 24598.6,8635.1 c 6.7,43.6 13.3,78.5 14.3,83.5 -1,-5 -7.6,-39.9 -14.2,-83.5 0,0 0,0 -0.1,0 m 14.3,83.6 c 0,0 0,0 0,0.1 0,-0.1 0,-0.1 0,-0.1 m 0,0.1 c 0,0 0,0 0,0.1 0,-0.1 0,-0.1 0,-0.1 m 0,0.1 c 0.1,0.2 0.1,0.3 0.1,0.3 v 0 c 0,0 0,-0.1 -0.1,-0.3 m -202.3,94.5 v 0 0 m 0,0 v 0 0"
         style="fill:#865d57;fill-opacity:1;fill-rule:nonzero;stroke:none"
         id="path264" /><path
         d="m 24551.9,8630.3 c -64.8,0 -113.1,30 -144.4,74.6 2.4,58.5 3.1,107.3 3.1,108.5 v 0 0 0 0 l 202.4,-94.2 c 0,0 0,-0.1 -0.1,-0.3 v 0 c 0,-0.1 0,-0.1 0,-0.1 v 0 c 0,-0.1 0,-0.1 0,-0.1 0,-0.1 0,-0.1 0,-0.1 -1,-5 -7.6,-39.9 -14.3,-83.5 -16.4,-3.3 -32,-4.8 -46.7,-4.8"
         style="fill:#f58c74;fill-opacity:1;fill-rule:nonzero;stroke:none"
         id="path266" /><path
         d="m 24686.9,9217.9 c 0,0 78,-43.3 106.5,-137 28.5,-93.7 -3.9,-335.6 -205.3,-394 -201.4,-58.4 -288.7,133.2 -247.2,282.9 41.5,149.8 131.7,339.4 346,248.1"
         style="fill:#f7a491;fill-opacity:1;fill-rule:nonzero;stroke:none"
         id="path268" /><path
         d="m 24315.7,9027.9 c 4,-40.3 26.2,-71 49.6,-68.7 23.4,2.3 39.2,36.8 35.3,77 -4,40.2 -26.2,70.9 -49.6,68.6 -23.4,-2.3 -39.2,-36.7 -35.3,-76.9"
         style="fill:#f7a491;fill-opacity:1;fill-rule:nonzero;stroke:none"
         id="path270" /><path
         d="m 24663.3,9230.1 c 0,0 36.5,-269.8 123.8,-318.5 87.2,-48.7 50.7,-168.4 50.7,-168.4 0,0 79.1,277.9 10.1,367.2 -68.9,89.3 -184.6,119.7 -184.6,119.7"
         style="fill:#184655;fill-opacity:1;fill-rule:nonzero;stroke:none"
         id="path272" /><path
         d="m 24735.4,8872.8 c -23.7,-35.1 -23.6,-76.6 0.2,-92.6 23.8,-16 62.2,-0.4 85.9,34.7 23.6,35.2 23.5,76.7 -0.2,92.6 -23.8,16 -62.2,0.5 -85.9,-34.7"
         style="fill:#f7a491;fill-opacity:1;fill-rule:nonzero;stroke:none"
         id="path274" /><path
         d="m 24587.4,8832.5 -160.9,54.7 c 0,0 -17.5,-63.5 52.6,-89.6 85.4,-31.9 108.3,34.9 108.3,34.9"
         style="fill:#ffffff;fill-opacity:1;fill-rule:nonzero;stroke:none"
         id="path276" /><path
         d="m 22363.5,10417 2701.4,180.7 -80.4,1201.4 -2701.4,-180.8 80.4,-1201.3"
         style="fill:#eafcfc;fill-opacity:1;fill-rule:nonzero;stroke:none"
         id="path278" /><path
         d="m 23871.5,10789.7 c -15.3,-3.9 -28.3,-22.5 -36.3,-34.1 -22.7,-32.7 -37.8,-94.3 -42.6,-90.6 0,0 -149.1,-117.7 -237.3,-165.9 -1.9,-9.3 -4.8,-19.7 -8.7,-30.9 l 162.2,-65.4 c 3.9,8.5 7.3,15.8 9.9,21.1 17.9,38.3 40.8,67.3 61,90.7 20.1,23.5 54.6,63.9 60.2,87 3.6,14.5 14.7,53.4 20.6,74.1 5.9,20.8 13.7,44.9 15.5,56.3 1.1,6.9 9.2,20.3 15.4,29.7 9.2,14 -3.6,32.2 -19.9,28"
         style="fill:#f7a491;fill-opacity:1;fill-rule:nonzero;stroke:none"
         id="path280" /><path
         d="M 6119.37,937.602 H 3209.17 L 2948.63,1085.2 h 2910.19 l 260.55,-147.598"
         style="fill:#eafcfc;fill-opacity:1;fill-rule:nonzero;stroke:none"
         id="path282" /><path
         d="m 13898.8,937.602 h -2910.2 l -260.5,147.598 h 2910.1 l 260.6,-147.598"
         style="fill:#eafcfc;fill-opacity:1;fill-rule:nonzero;stroke:none"
         id="path284" /><path
         d="M 21678.2,937.602 H 18768 l -260.5,147.598 h 2910.2 l 260.5,-147.598"
         style="fill:#eafcfc;fill-opacity:1;fill-rule:nonzero;stroke:none"
         id="path286" /><path
         d="m 29457.6,937.602 h -2910.2 l -260.5,147.598 h 2910.2 l 260.5,-147.598"
         style="fill:#eafcfc;fill-opacity:1;fill-rule:nonzero;stroke:none"
         id="path288" /><path
         d="m 29483.8,4292.7 h -1371.7 v 0 h -1371.7 c -84.2,0 -152.4,-68.2 -152.4,-152.4 v -478.8 c 0,-84.2 68.2,-152.5 152.4,-152.5 h 1371.7 v 0 h 1371.7 c 84.2,0 152.4,68.3 152.4,152.5 v 478.8 c 0,84.2 -68.2,152.4 -152.4,152.4"
         style="fill:#efb454;fill-opacity:1;fill-rule:nonzero;stroke:none"
         id="path290" /><path
         d="m 29636.2,3900.9 v 210.2 c 0,100.3 -62.2,181.6 -138.9,181.6 h -2770.4 c -76.7,0 -138.9,-81.3 -138.9,-181.6 v -210.2 h 3048.2"
         style="fill:#f7cc7f;fill-opacity:1;fill-rule:nonzero;stroke:none"
         id="path292" /><path
         d="m 27078.7,3764.2 h -103.5 v 250.6 h 103.5 v -250.6"
         style="fill:#eafcfc;fill-opacity:1;fill-rule:nonzero;stroke:none"
         id="path294" /><path
         d="m 29249,3764.2 h -103.5 v 250.6 h 103.5 v -250.6"
         style="fill:#eafcfc;fill-opacity:1;fill-rule:nonzero;stroke:none"
         id="path296" /><path
         d="m 28425.8,3843.2 h -710.2 v 92.6 h 710.2 v -92.6"
         style="fill:#1a1a1a;fill-opacity:1;fill-rule:nonzero;stroke:none"
         id="path298" /><path
         d="m 29197.3,4684.6 v 210.2 c 0,100.3 -44.3,181.6 -98.9,181.6 h -1972.6 c -54.6,0 -98.9,-81.3 -98.9,-181.6 v -210.2 h 2170.4"
         style="fill:#f47458;fill-opacity:1;fill-rule:nonzero;stroke:none"
         id="path300" /><path
         d="m 27026.9,4684.6 v -225.1 c 0,-92.1 74.7,-166.8 166.9,-166.8 h 1836.6 c 92.2,0 166.9,74.7 166.9,166.8 v 225.1 h -2170.4"
         style="fill:#b75742;fill-opacity:1;fill-rule:nonzero;stroke:none"
         id="path302" /><path
         d="m 27317.4,4547.9 h -73.7 v 250.6 h 73.7 v -250.6"
         style="fill:#e1f3f4;fill-opacity:1;fill-rule:nonzero;stroke:none"
         id="path304" /><path
         d="m 28921.6,4547.9 h -73.7 v 250.6 h 73.7 v -250.6"
         style="fill:#e1f3f4;fill-opacity:1;fill-rule:nonzero;stroke:none"
         id="path306" /><path
         d="m 28335.5,4626.9 h -505.7 v 92.6 h 505.7 v -92.6"
         style="fill:#1a1a1a;fill-opacity:1;fill-rule:nonzero;stroke:none"
         id="path308" /><path
         d="m 27265.6,5075.7 1795.5,1 28.9,800 h -1824.4 c -221.2,0 -400.5,-179.4 -400.5,-400.5 0,-221.2 179.3,-400.5 400.5,-400.5"
         style="fill:#355389;fill-opacity:1;fill-rule:nonzero;stroke:none"
         id="path310" /><path
         d="m 28678,5476.2 c 0,-221.2 165.2,-400.5 369,-400.5 203.7,0 368.9,179.3 368.9,400.5 0,221.1 -165.2,400.5 -368.9,400.5 -203.8,0 -369,-179.4 -369,-400.5"
         style="fill:#86b1f2;fill-opacity:1;fill-rule:nonzero;stroke:none"
         id="path312" /><path
         d="m 28297.6,5038.2 0.3,0.3 c 16.6,12.8 19.8,36.3 7.7,53.4 -121.5,171.7 -155.4,354.5 -100.5,543.8 30.5,105.3 81.8,185.6 110.8,225.4 11.7,16.1 9.1,38.4 -5.7,51.7 l -0.4,0.3 c -17.2,15.3 -43.6,12.4 -57.2,-6.1 -32.6,-44.6 -87.7,-131.3 -121.6,-246.4 -43.9,-149.1 -58.4,-374.1 110.9,-613.8 12.8,-18.2 38.1,-22.2 55.7,-8.6"
         style="fill:#13375b;fill-opacity:1;fill-rule:nonzero;stroke:none"
         id="path314" /><path
         d="m 27641.2,5038.2 0.4,0.3 c 16.5,12.8 19.8,36.3 7.7,53.4 -121.6,171.7 -155.4,354.5 -100.5,543.8 30.4,105.3 81.8,185.6 110.7,225.4 11.8,16.1 9.2,38.4 -5.6,51.7 l -0.5,0.3 c -17.1,15.3 -43.5,12.4 -57.1,-6.1 -32.6,-44.6 -87.7,-131.3 -121.6,-246.4 -43.9,-149.1 -58.4,-374.1 110.9,-613.8 12.8,-18.2 38.1,-22.2 55.6,-8.6"
         style="fill:#13375b;fill-opacity:1;fill-rule:nonzero;stroke:none"
         id="path316" /><path
         d="m 28741.7,5547.7 c 19.7,126.2 87.9,189.8 141.6,221 79.9,46.2 182.7,52.7 274.9,17.4 87.6,-33.7 157.7,-110.4 182.8,-200.2 22.3,-79.9 5.8,-161.2 -46.6,-228.8 -88,-113.6 -223,-95.7 -288.9,-67.2 -59.7,25.8 -104.6,87 -114.2,155.9 -7.8,55.7 17.4,109.5 65.7,140.4 48.7,31.1 108.4,31.3 156,0.6 34.6,-22.4 69,-66.5 36.5,-150 l -26.4,10.3 c 20.8,53.4 12.5,91.3 -25.5,115.8 -38.1,24.6 -86.1,24.4 -125.3,-0.6 -38.9,-24.9 -59.2,-68 -52.9,-112.6 8.3,-59.2 46.5,-111.8 97.4,-133.7 58.4,-25.3 177.8,-41.4 255.1,58.5 60,77.3 55.8,153.5 41.7,203.7 -22.4,80.2 -87.4,151.3 -165.6,181.4 -84.3,32.3 -177.9,26.5 -250.5,-15.5 -69.4,-40.2 -113.5,-109.6 -127.7,-200.7 -18.5,-118.8 3.7,-213.5 66.1,-281.4 117.1,-127.7 365.2,-125.9 407.8,-124.5 -15.4,-10.6 -31.6,-20 -48.5,-28.1 h -2.2 c -75.5,0 -267.2,12.7 -377.9,133.3 -68.6,74.6 -93.2,177.3 -73.4,305"
         style="fill:#13375b;fill-opacity:1;fill-rule:nonzero;stroke:none"
         id="path318" /><path
         d="m 21649.7,9201.6 -131.1,-0.7 c 0,0 3.4,-50.6 61,-52 70.3,-1.7 70.1,52.7 70.1,52.7"
         style="fill:#ffffff;fill-opacity:1;fill-rule:nonzero;stroke:none"
         id="path320" /><path
         d="M 9418.81,17822.5 H 5868.58 c -1.67,17.4 -2.6,35.1 -2.6,52.9 0,301.3 244.23,545.5 545.5,545.5 96.28,0 186.67,-25 265.19,-68.8 110.92,305.4 403.67,523.6 747.37,523.6 288.89,0 541.77,-154.2 680.96,-384.6 60.62,18.8 125.09,29 191.94,29 258.55,0 481.51,-152.2 584.25,-371.9 35.34,9.2 72.41,14.1 110.62,14.1 208.16,0 382.29,-145.2 427,-339.8"
         style="fill:#f5fefe;fill-opacity:1;fill-rule:nonzero;stroke:none"
         id="path322" /><path
         d="m 18914.5,14970.4 h -2133.7 c -1,10.5 -1.6,21.1 -1.6,31.8 0,181.1 146.8,327.9 327.8,327.9 57.9,0 112.2,-15.1 159.4,-41.4 66.7,183.6 242.6,314.7 449.2,314.7 173.6,0 325.6,-92.7 409.3,-231.2 36.4,11.4 75.2,17.5 115.3,17.5 155.4,0 289.4,-91.5 351.2,-223.6 21.2,5.6 43.5,8.5 66.5,8.5 125.1,0 229.7,-87.2 256.6,-204.2"
         style="fill:#f5fefe;fill-opacity:1;fill-rule:nonzero;stroke:none"
         id="path324" /><path
         d="m 15616.5,16541.3 h -3506.9 c -1.7,17.2 -2.6,34.6 -2.6,52.3 0,297.5 241.3,538.8 538.8,538.8 95.1,0 184.4,-24.7 262,-68 109.6,301.7 398.7,517.2 738.2,517.2 285.4,0 535.2,-152.3 672.7,-379.9 59.9,18.6 123.6,28.7 189.6,28.7 255.4,0 475.6,-150.4 577.1,-367.5 34.9,9.1 71.5,14 109.3,14 205.6,0 377.6,-143.4 421.8,-335.6"
         style="fill:#f5fefe;fill-opacity:1;fill-rule:nonzero;stroke:none"
         id="path326" /><path
         d="m 22923.7,17626.2 h -2812.2 c 35.4,154.2 173.4,269.2 338.2,269.2 30.3,0 59.7,-3.9 87.7,-11.2 81.4,174 258,294.6 462.8,294.6 52.9,0 104,-8 152,-23 110.3,182.6 310.6,304.6 539.4,304.6 272.3,0 504.2,-172.8 592,-414.6 62.2,34.6 133.8,54.5 210.1,54.5 238.6,0 432.1,-193.5 432.1,-432.1 0,-14.2 -0.7,-28.2 -2.1,-42"
         style="fill:#f5fefe;fill-opacity:1;fill-rule:nonzero;stroke:none"
         id="path328" /></g></g></svg>
