<svg xmlns="http://www.w3.org/2000/svg" id="crown" viewBox="0 0 32 32"><path d="M28.5 11c-.827 0-1.5.673-1.5 1.5 0 .231.057.447.15.643l-1.324 1.324-1.95-4.254A1.5 1.5 0 0 0 24.5 9c0-.827-.673-1.5-1.5-1.5s-1.5.673-1.5 1.5c0 .451.204.851.52 1.126l-1.868 2.989-2.98-5.502C17.671 7.249 18 6.664 18 6c0-1.103-.897-2-2-2s-2 .897-2 2c0 .664.329 1.249.828 1.613l-2.98 5.502-1.868-2.989c.316-.275.52-.675.52-1.126 0-.827-.673-1.5-1.5-1.5S7.5 8.173 7.5 9c0 .499.248.939.624 1.212l-1.95 4.254-1.324-1.323c.093-.196.15-.412.15-.643 0-.827-.673-1.5-1.5-1.5S2 11.673 2 12.5c0 .778.597 1.412 1.356 1.485L5.979 24.48l-.954 2.862A.499.499 0 0 0 5.5 28h21a.496.496 0 0 0 .405-.208.496.496 0 0 0 .069-.45l-.954-2.862 2.623-10.495A1.496 1.496 0 0 0 28.5 11zM23 8.5a.496.496 0 1 1 .166.966c-.019.002-.038-.002-.058.002L23 9.5c-.018 0-.071-.016-.137-.035-.01-.003-.02.004-.031.001A.498.498 0 0 1 23 8.5zm-.067 2.052l2.14 4.669-2.452 2.452-1.922-3.548 2.234-3.573zM16 5a1 1 0 1 1 0 2 1 1 0 0 1 0-2zM9 8.5a.494.494 0 1 1 .132.973c-.007.002-.015-.002-.022 0l-.049.015c-.02.002-.039.012-.061.012-.038 0-.072-.014-.108-.022v-.009c-.02-.004-.038-.001-.058-.002A.499.499 0 0 1 8.5 9c0-.275.225-.5.5-.5zm.067 2.052l2.234 3.573-1.921 3.548-2.452-2.452 2.139-4.669zm-5.216 2.303a.525.525 0 0 1-.235.113c-.012.003-.02.011-.032.015-.028.005-.054.017-.084.017-.275 0-.5-.225-.5-.5s.225-.5.5-.5a.501.501 0 0 1 .351.855zM6.193 27l.667-2h18.28l.667 2H6.193zm18.916-3H6.891l-2.468-9.87 4.724 4.724a.502.502 0 0 0 .182.113c.019.007.04.007.06.012.036.008.072.021.111.021a.5.5 0 0 0 .439-.262l2.38-4.393v-.002l3.445-6.36c.027.004.054-.002.081 0 .052.005.102.017.155.017s.103-.012.154-.016c.027-.002.054.004.081 0l3.445 6.36v.002l2.38 4.393a.502.502 0 0 0 .367.257c.025.002.05.004.073.004.038 0 .073-.013.109-.022.021-.005.043-.005.063-.012a.495.495 0 0 0 .181-.112l4.724-4.724L25.109 24zM28.5 13c-.03 0-.056-.012-.085-.017-.011-.004-.02-.012-.032-.015a.525.525 0 0 1-.235-.113A.501.501 0 0 1 28.5 12c.275 0 .5.225.5.5s-.225.5-.5.5zM16 17c-1.379 0-2.5 1.121-2.5 2.5S14.621 22 16 22s2.5-1.121 2.5-2.5S17.379 17 16 17zm0 4c-.827 0-1.5-.673-1.5-1.5S15.173 18 16 18s1.5.673 1.5 1.5S16.827 21 16 21z"/></svg>