<?xml version="1.0" encoding="UTF-8"?><svg id="fuel" enable-background="new 0 0 512 512" version="1.1" viewBox="0 0 512 512" xml:space="preserve" xmlns="http://www.w3.org/2000/svg"><g xmlns="http://www.w3.org/2000/svg"><path d="m416.92 89.996 33.008-1e-3c8.283 0 14.999-6.716 14.999-15v-59.994c0-8.284-6.716-15-15-15l-33-1e-3h-7e-3c-46.743 0-90.691 18.204-123.74 51.256l-50.311 50.311-3.536-3.536c-5.857-5.858-15.355-5.857-21.213 0l-24.749 24.749-17.678-17.677c-5.857-5.858-15.355-5.858-21.213 0l-63.64 63.64c-4.867 4.867-5.797 12.422-2.256 18.324l15.188 25.312-83.641 83.642c-5.858 5.858-5.858 15.355 0 21.213l17.678 17.678-15.841 15.84c-14.166 14.166-21.967 33-21.967 53.033v93.215c0 8.284 6.716 15 15 15s15-6.716 15-15v-93.215c0-12.02 4.681-23.32 13.18-31.819l15.841-15.841 38.891 38.891c14.166 14.166 33 21.967 53.033 21.967s38.867-7.801 53.032-21.967l120.21-120.21c3.426-3.425 4.986-8.294 4.189-13.072l-14.143-84.854c-0.514-3.083-1.979-5.93-4.189-8.14l-3.536-3.536 50.314-50.313c16.054-16.054 37.398-24.895 60.101-24.897zm-234.16 283.81c-8.499 8.5-19.8 13.18-31.819 13.18-12.021 0-23.32-4.681-31.82-13.18l-10.606-10.607 55.711-55.711v20.356c0 8.284 6.716 15 15 15s15-6.716 15-15v-32.298l44.53 22.265zm78.355-78.356-75.183-37.591c-5.776-2.889-12.751-1.755-17.314 2.81l-81.317 81.317-35.355-35.355 81.317-81.317c4.867-4.867 5.797-12.422 2.256-18.324l-15.188-25.312 44.752-44.751 17.678 17.677c5.856 5.858 15.354 5.858 21.213 0l24.749-24.749 56.705 56.705 12.083 72.497zm24.175-151.45-21.213-21.213 50.311-50.311c27.387-27.388 63.802-42.47 102.54-42.469h18.001v29.995l-18.009 1e-3c-30.715 1e-3 -59.592 11.964-81.312 33.683z" data-original="#000000"/><path d="m489.975 190.189c-10.18-17.548-20.211-32.103-20.633-32.714-2.801-4.055-7.414-6.475-12.342-6.475s-9.541 2.42-12.342 6.475c-.422.611-10.453 15.166-20.633 32.714-19.742 34.032-22.025 48.151-22.025 55.811 0 30.327 24.673 55 55 55s55-24.673 55-55c0-7.66-2.283-21.779-22.025-55.811zm-32.975 80.811c-13.785 0-25-11.215-25-25 0-8.017 11.479-30.634 25.003-52.545 13.52 21.9 24.997 44.514 24.997 52.545 0 13.785-11.215 25-25 25z" data-original="#000000"/></g></svg>
