<?xml version="1.0" encoding="UTF-8"?><svg id="power" enable-background="new 0 0 512 512" version="1.1" viewBox="0 0 238.13 238.13" xml:space="preserve" xmlns="http://www.w3.org/2000/svg"><path d="m205.07 98.678c-1.194-2.728-3.891-4.49-6.869-4.49h-62.33l30.023-84.167c1.197-3.357-0.134-7.094-3.184-8.938-3.052-1.845-6.979-1.287-9.395 1.333l-118.9 128.94c-2.019 2.189-2.551 5.366-1.355 8.094 1.194 2.728 3.891 4.49 6.869 4.49h40.521c4.143 0 7.5-3.358 7.5-7.5s-3.357-7.5-7.5-7.5h-23.403l82.365-89.315-21.24 59.543c-0.818 2.297-0.432 4.849 0.974 6.842 1.405 1.993 3.73 3.178 6.169 3.178h55.772l-82.353 89.305 21.243-59.533c0.82-2.297 0.472-4.849-0.934-6.842s-3.691-3.179-6.13-3.179h-0.074c-3.525 0-6.455 2.432-7.25 5.709l-33.348 93.456c-1.198 3.357 0.133 7.094 3.183 8.938 1.205 0.729 2.547 1.083 3.878 1.083 2.039 0 4.055-0.831 5.517-2.416l118.9-128.94c2.02-2.188 2.552-5.364 1.357-8.092z" data-original="#000000" xmlns="http://www.w3.org/2000/svg"/></svg>
