<?xml version="1.0" encoding="utf-8"?><svg id="register" version="1.1" x="0" y="0" viewBox="0 0 512 512" style="enable-background:new 0 0 512 512" xmlns="http://www.w3.org/2000/svg"><g transform="matrix(0.696859, 0, 0, 0.696859, 84.323151, 99.803299)"><path xmlns="http://www.w3.org/2000/svg" d="m64 392v-296h352v184h16v-232a32.036 32.036 0 0 0 -32-32h-320a32.036 32.036 0 0 0 -32 32v344a32.036 32.036 0 0 0 32 32h192v-16h-192a16.019 16.019 0 0 1 -16-16zm16-360h320a16.019 16.019 0 0 1 16 16v32h-352v-32a16.019 16.019 0 0 1 16-16z" data-original="#000000"/><path xmlns="http://www.w3.org/2000/svg" d="m80 48h16v16h-16z" data-original="#000000"/><path xmlns="http://www.w3.org/2000/svg" d="m112 48h16v16h-16z" data-original="#000000"/><path xmlns="http://www.w3.org/2000/svg" d="m144 48h16v16h-16z" data-original="#000000"/><path xmlns="http://www.w3.org/2000/svg" d="M 472 344 L 446.035 344 L 437.528 314.228 C 433.072 298.69 417.738 288.906 401.769 291.411 L 285.316 309.8 C 269.353 312.312 259.83 328.97 265.764 344 L 248 344 C 246.42 344 244.876 344.468 243.562 345.344 L 221.578 360 L 208 360 L 208 376 L 221.578 376 L 243.562 390.656 C 244.876 391.532 246.42 392 248 392 L 284.686 392 L 304.134 411.447 C 305.39 427.931 315.941 442.254 331.312 448.341 L 344 453.416 L 344 546.301 L 360 538.496 L 360 448 C 360 444.729 358.009 441.787 354.972 440.572 L 337.254 433.485 C 326.809 429.347 319.963 419.235 320 408 C 320 405.878 319.157 403.843 317.657 402.343 L 290.628 375.313 C 285.745 370.431 287.979 362.093 294.649 360.306 C 295.406 360.103 296.187 360 296.971 360 L 299.994 360 C 301.386 360.001 302.759 360.326 304.005 360.947 L 363.261 390.575 L 386.343 413.657 L 397.657 402.343 L 387.314 392 L 432 392 L 432 507.274 L 448 496 L 448 392 L 472 392 C 490.475 392 502.022 372 492.785 356 C 488.497 348.574 480.574 344 472 344 Z M 238.422 368 L 250.422 360 L 273.673 360 C 271.701 365.116 271.465 370.738 273.003 376 L 250.422 376 L 238.422 368 Z M 296.971 344 L 289.255 344 C 282.131 344.016 277.661 336.313 281.209 330.135 C 282.608 327.7 285.037 326.032 287.812 325.6 L 404.265 307.213 C 412.25 305.956 419.92 310.849 422.144 318.621 L 429.394 344 L 387.314 344 L 397.657 333.657 L 386.343 322.343 L 364.687 344 L 296.971 344 Z M 369.889 376 L 337.889 360 L 448 360 L 448 376 L 369.889 376 Z M 472 376 L 464 376 L 464 360 L 472 360 C 478.158 360 482.007 366.667 478.928 372 C 477.499 374.475 474.858 376 472 376 Z" data-original="#000000"/><path xmlns="http://www.w3.org/2000/svg" d="m232 256v-128a8 8 0 0 0 -8-8h-128a8 8 0 0 0 -8 8v128a8 8 0 0 0 8 8h128a8 8 0 0 0 8-8zm-72-40a24.028 24.028 0 0 1 24 24v8h-48v-8a24.028 24.028 0 0 1 24-24zm-16-32a16 16 0 1 1 16 16 16.019 16.019 0 0 1 -16-16zm72 64h-16v-8a39.994 39.994 0 0 0 -17.632-33.146 32 32 0 1 0 -44.736 0 39.994 39.994 0 0 0 -17.632 33.146v8h-16v-112h112z" data-original="#000000"/><path xmlns="http://www.w3.org/2000/svg" d="m128 280h96v16h-96z" data-original="#000000"/><path xmlns="http://www.w3.org/2000/svg" d="m96 280h16v16h-16z" data-original="#000000"/><path xmlns="http://www.w3.org/2000/svg" d="m296 136h96v16h-96z" data-original="#000000"/><path xmlns="http://www.w3.org/2000/svg" d="m264 168h128v16h-128z" data-original="#000000"/><path xmlns="http://www.w3.org/2000/svg" d="m264 200h128v16h-128z" data-original="#000000"/><path xmlns="http://www.w3.org/2000/svg" d="m264 232h128v16h-128z" data-original="#000000"/><path xmlns="http://www.w3.org/2000/svg" d="m264 136h16v16h-16z" data-original="#000000"/><path xmlns="http://www.w3.org/2000/svg" d="m448 56h16v160h-16z" data-original="#000000"/><path xmlns="http://www.w3.org/2000/svg" d="m448 232h16v16h-16z" data-original="#000000"/><path xmlns="http://www.w3.org/2000/svg" d="m91.61 345.435-11.038 27.594 14.856 5.942 9.384-23.459 4.993 9.987a14 14 0 0 0 20.288 5.387l12.887-8.592 9.605 9.605a13.907 13.907 0 0 0 9.9 4.1h29.515v-15.999h-28.687l-10.177-10.179a14.037 14.037 0 0 0 -17.666-1.749l-12.37 8.244-5.972-11.944a14 14 0 0 0 -25.521 1.063z" data-original="#000000"/></g><circle cx="257.544" cy="255.919" fill="none" r="233.937" stroke-linejoin="round" stroke-miterlimit="10" stroke-width="10px"/></svg>