<svg xmlns="http://www.w3.org/2000/svg" version="1.1" xmlns:xlink="http://www.w3.org/1999/xlink" xmlns:svgjs="http://svgjs.com/svgjs" id="rental" x="0" y="0" viewBox="0 0 512.004 512.004" style="enable-background:new 0 0 512 512" xml:space="preserve"><g><g xmlns="http://www.w3.org/2000/svg"><path d="m492.016 390.004c0-21.377-7.858-40.941-20.814-56h4.083c19.881-.738 19.866-29.269 0-30h-30.539l-31.697-62.097c-13.073-25.611-38.045-40.902-66.8-40.902h-180.543c-28.766 0-53.742 15.298-66.811 40.923l-31.662 62.076h-30.447c-19.881.738-19.866 29.269 0 30h3.996c-12.956 15.059-20.814 34.624-20.814 56l.067 88.799c0 18.307 14.894 33.201 33.201 33.201h47.597c18.308 0 33.202-14.894 33.202-33.201v-26.798h244v26.798c0 18.307 14.894 33.201 33.201 33.201h47.597c18.308 0 33.202-14.894 33.202-33.201zm-442.048 32v-32c0-30.878 25.122-56 56-56h300.048c30.878 0 56 25.121 56 56v32zm75.652-166.446c7.958-15.604 22.569-24.554 40.086-24.554h180.544c17.51 0 32.119 8.945 40.08 24.541l24.821 48.626c-1.7-.101-3.41-.167-5.135-.167h-300.048c-1.728 0-3.441.066-5.144.167zm-21.584 223.245c0 1.735-1.466 3.201-3.202 3.201h-47.597c-1.735 0-3.201-1.466-3.201-3.201v-26.798h54zm354.798 3.201h-47.597c-1.735 0-3.201-1.466-3.201-3.201v-26.798h54v26.798c0 1.735-1.467 3.201-3.202 3.201z" data-original="#000000"></path><path d="m129.315 363.004h-34.277c-19.881.738-19.866 29.269 0 30h34.277c19.881-.737 19.866-29.269 0-30z" data-original="#000000"></path><path d="m317.036 363.004h-122.088c-19.881.738-19.866 29.269 0 30h122.088c19.881-.737 19.866-29.269 0-30z" data-original="#000000"></path><path d="m417.175 363.004h-30.779c-19.881.738-19.866 29.269 0 30h30.779c19.881-.737 19.866-29.269 0-30z" data-original="#000000"></path><path d="m54.502 152.004c8.284 0 15-6.716 15-15v-38.071l32.502 46.805c4.754 6.853 14.153 8.456 20.876 3.765 6.805-4.725 8.49-14.072 3.765-20.876l-28.332-40.8c48.115-16.375 37.599-86.789-13.811-87.823h-30c-8.284 0-15 6.716-15 15v122c0 8.285 6.716 15 15 15zm15-122h15c19.877.756 19.862 29.251 0 30h-15z" data-original="#000000"></path><path d="m177.35 151.997c.143 0 42 .008 42 .008 19.881-.738 19.866-29.269 0-30h-27v-31.006h27c19.881-.738 19.866-29.269 0-30h-27v-30.994h27c19.881-.738 19.866-29.269 0-30 0 0-41.815-.005-42-.005-8.284 0-15 6.716-15 15v121.997c0 8.284 6.715 15 15 15z" data-original="#000000"></path><path d="m282.375 152.001c8.284 0 15-6.716 15-15v-52.337l26.482 58.637c2.464 5.456 7.87 8.828 13.665 8.828 8.157.081 15.096-6.831 15.005-15.001v-122.119c-.738-19.881-29.269-19.866-30 0v52.461l-26.481-58.637c-2.909-6.441-9.921-9.977-16.828-8.49-6.909 1.488-11.842 7.597-11.842 14.664v121.994c-.001 8.284 6.715 15 14.999 15z" data-original="#000000"></path><path d="m395.554 30.005h15.974v107.002c.738 19.881 29.269 19.866 30 0v-107.002h15.974c19.881-.738 19.866-29.269 0-30h-61.948c-19.881.738-19.866 29.269 0 30z" data-original="#000000"></path></g></g></svg>
