<svg xmlns="http://www.w3.org/2000/svg" version="1.1" xmlns:xlink="http://www.w3.org/1999/xlink" xmlns:svgjs="http://svgjs.com/svgjs" id="security-deposit" x="0" y="0" viewBox="0 0 64 64" style="enable-background:new 0 0 512 512" xml:space="preserve"><g><g xmlns="http://www.w3.org/2000/svg"><path d="m27 45v-3c0-1.654-1.346-3-3-3-.552 0-1-.448-1-1v-1h1c.552 0 1 .448 1 1v1h2v-1c0-1.302-.839-2.402-2-2.816v-2.184h-2v2h-2v3c0 1.654 1.346 3 3 3 .552 0 1 .448 1 1v1h-1c-.552 0-1-.448-1-1v-1h-2v1c0 1.302.839 2.402 2 2.816v2.184h2v-2z" data-original="#000000"></path><path d="m61 7h-14v-3c0-1.654-1.346-3-3-3h-40c-1.654 0-3 1.346-3 3v52c0 1.371.93 2.518 2.188 2.874l.653 2.61c.222.893 1.02 1.516 1.94 1.516h36.438c.92 0 1.718-.623 1.94-1.516l.653-2.61c1.258-.356 2.188-1.503 2.188-2.874v-3h14c1.103 0 2-.897 2-2v-42c0-1.103-.897-2-2-2zm-37.967.021c3.503.15 5.293 1.043 5.954 1.465-.087 1.591-.595 3.122-1.483 4.455l-.039.059h-2.839c-.911-1.863-1.458-3.908-1.593-5.979zm8.967 9.979h-11v2h11c.552 0 1 .448 1 1s-.448 1-1 1h-11v2h11c.552 0 1 .448 1 1s-.448 1-1 1h-11v2h9c.552 0 1 .448 1 1s-.448 1-1 1h-11.528c-2.567 0-5.136-.569-7.472-1.638v-12.924c1.795-1.684 4.06-2.815 6.481-3.239l1.901 3.801h12.618c.552 0 1 .448 1 1s-.448 1-1 1zm-23 10h-2v-12h2zm11.618-14-1.477-2.953c.489-.655 1.256-1.047 2.095-1.047h.021c.234 1.372.625 2.718 1.167 4zm-3.304-3.8c-2.883.469-5.592 1.793-7.719 3.8h-.595v-4h8.432c-.044.063-.078.134-.118.2zm-12.314 17.8h-2v-12h2zm4 2h.768c2.08 1.008 4.341 1.646 6.642 1.887l-2.919 3.649c-1.605 2.008-2.49 4.528-2.49 7.1 0 3.883 1.96 7.314 4.939 9.364h-6.94zm4 12.636c0-2.118.729-4.196 2.053-5.85l3.829-4.786h10.237l3.829 4.786c1.323 1.653 2.052 3.732 2.052 5.85 0 5.163-4.201 9.364-9.364 9.364h-3.271c-5.164 0-9.365-4.201-9.365-9.364zm24 0c0-2.571-.885-5.092-2.49-7.1l-3.116-3.895c.95-.504 1.606-1.492 1.606-2.641 0-.395-.081-.77-.22-1.116 1.275-.346 2.22-1.501 2.22-2.884 0-.771-.301-1.468-.78-2 .48-.532.78-1.229.78-2s-.301-1.468-.78-2c.48-.532.78-1.229.78-2 0-1.654-1.346-3-3-3h-2.221c.645-1.247 1.042-2.6 1.17-4h8.051v42h-6.939c2.979-2.051 4.939-5.481 4.939-9.364zm4-32.636h16v42h-16zm-37-6h40c.552 0 1 .448 1 1v3h-14.642c-.85-.633-3.276-2-8.358-2h-1v1c0 .333.011.667.029 1h-14.029v6h-4v-9c0-.552.448-1 1-1zm1.78 58-.5-2h37.439l-.501 2zm39.22-5c0 .552-.448 1-1 1h-40c-.552 0-1-.448-1-1v-27h4v24h38zm16-5h-2v-42h2z" data-original="#000000"></path></g></g></svg>
