<svg width="0" height="0" class="hidden"><symbol xmlns="http://www.w3.org/2000/svg" id="instagram" viewBox="0 0 24 24"><path d="M12 2c5.514 0 10 4.486 10 10s-4.486 10-10 10S2 17.514 2 12 6.486 2 12 2zm0-2C5.373 0 0 5.373 0 12s5.373 12 12 12 12-5.373 12-12S18.627 0 12 0zm0 7.082c1.602 0 1.792.006 2.425.035 1.627.074 2.385.845 2.46 2.459.028.633.034.822.034 2.424s-.006 1.792-.034 2.424c-.075 1.613-.832 2.386-2.46 2.46-.633.028-.822.035-2.425.035-1.602 0-1.792-.006-2.424-.035-1.63-.075-2.385-.849-2.46-2.46-.028-.632-.035-.822-.035-2.424s.007-1.792.035-2.424c.074-1.615.832-2.386 2.46-2.46.632-.029.822-.034 2.424-.034zM12 6c-1.63 0-1.833.007-2.474.037-2.18.1-3.39 1.309-3.49 3.489C6.007 10.167 6 10.371 6 12c0 1.63.007 1.834.036 2.474.1 2.179 1.31 3.39 3.49 3.49.641.029.844.036 2.474.036 1.63 0 1.834-.007 2.475-.036 2.176-.1 3.391-1.309 3.489-3.49.029-.64.036-.844.036-2.474 0-1.629-.007-1.833-.036-2.474-.098-2.177-1.309-3.39-3.489-3.489C13.834 6.007 13.63 6 12 6zm0 2.919c-1.701 0-3.081 1.379-3.081 3.081s1.38 3.081 3.081 3.081 3.081-1.379 3.081-3.081c0-1.701-1.38-3.081-3.081-3.081zM12 14c-1.105 0-2-.895-2-2 0-1.104.895-2 2-2 1.104 0 2.001.895 2.001 2s-.897 2-2.001 2zm3.202-5.922c-.397 0-.72.322-.72.72 0 .397.322.72.72.72.398 0 .721-.322.721-.72 0-.398-.322-.72-.721-.72z"/></symbol><symbol xmlns="http://www.w3.org/2000/svg" xmlns:xlink="http://www.w3.org/1999/xlink" id="line" viewBox="0 0 100 100"><defs><linearGradient id="linear-gradient" x1="95" x2="5" y1="50.5" y2="50.5" gradientUnits="userSpaceOnUse"><stop offset="0" stop-color="#f77f00"/><stop offset="1" stop-color="#fcbf49"/></linearGradient></defs><rect width="90" height="5" x="5" y="48" rx="2.5" ry="2.5"/></symbol><symbol xmlns="http://www.w3.org/2000/svg" id="lock" viewBox="0 0 512 512"><path d="M380 450H143a15 15 0 0 1-15-15V213.66a15 15 0 0 1 15-15h237a15 15 0 0 1 15 15V435a15 15 0 0 1-15 15Zm-222-30h207V228.66H158Z"/><path d="M351.66 228.66H171.41a15 15 0 0 1-15-15v-60.54a105.13 105.13 0 0 1 210.25 0v60.54a15 15 0 0 1-15 15Zm-165.25-30h150.25v-45.54a75.13 75.13 0 0 0-150.25 0ZM261.54 352.67a46.5 46.5 0 1 1 46.5-46.5 46.55 46.55 0 0 1-46.5 46.5Zm0-63a16.5 16.5 0 1 0 16.5 16.5 16.52 16.52 0 0 0-16.5-16.5Z"/><path d="M261.54 389a15 15 0 0 1-15-15v-36.33a15 15 0 1 1 30 0V374a15 15 0 0 1-15 15Z"/></symbol><symbol xmlns="http://www.w3.org/2000/svg" xmlns:xlink="http://www.w3.org/1999/xlink" xml:space="preserve" id="logout" viewBox="0 0 512 512"><path xmlns="http://www.w3.org/2000/svg" fill-rule="evenodd" d="M252.326 430.455v25.516c0 20.462-10.198 38.127-27.919 48.357-8.526 4.922-18.042 7.668-27.908 7.673-9.875.005-19.388-2.746-27.92-7.673L55.123 438.824c-17.723-10.232-27.919-27.892-27.919-48.357V55.838C27.204 25.047 52.252 0 83.042 0h249.871c30.792 0 55.842 25.045 55.842 55.838v70.539c0 10.119-8.216 18.335-18.335 18.335-10.122 0-18.331-8.215-18.331-18.335V55.838c0-10.573-8.603-19.176-19.176-19.176H113.961l110.446 63.777c17.715 10.23 27.919 27.89 27.919 48.347v245.003h80.587c10.572 0 19.176-8.598 19.176-19.172v-61.836c0-10.126 8.204-18.335 18.331-18.335 10.123 0 18.335 8.211 18.335 18.335v61.836c0 30.793-25.05 55.838-55.842 55.838zm169.883-196.897-20.191 20.191c-7.159 7.159-7.157 18.765 0 25.925 3.446 3.448 8.09 5.364 12.963 5.364 4.878 0 9.517-1.911 12.968-5.364l51.479-51.488c7.157-7.158 7.158-18.758 0-25.916l-51.479-51.48c-7.16-7.16-18.767-7.157-25.93-.001-7.157 7.152-7.155 18.763 0 25.917l20.19 20.186h-135.26c-10.129 0-18.331 8.208-18.331 18.336s8.203 18.331 18.331 18.331h135.26z" clip-rule="evenodd" data-original="#000000"/></symbol><symbol xmlns="http://www.w3.org/2000/svg" id="money" viewBox="0 0 122.88 89.4"><path d="M79.78 79.77c0 5.31-8.23 9.63-18.37 9.63s-18.36-4.32-18.36-9.63a5.62 5.62 0 0 1 .84-2.88c2.34 3.91 9.3 6.75 17.52 6.75 5.44 0 14.47-1.61 17.53-6.75a5.55 5.55 0 0 1 .84 2.88ZM24.1 55l-.22 2.39-9-.79a8.21 8.21 0 0 1 1.54 3.25l-2.17-.19a6.72 6.72 0 0 0-1-2.13 4.34 4.34 0 0 0-1.87-1.68l.19-1.85 12.53 1Zm12.11 24.91c0 5.23-8.11 9.49-18.1 9.49S0 85.14 0 79.91a5.47 5.47 0 0 1 .83-2.84c2.3 3.85 9.17 6.65 17.28 6.65 5.35 0 14.25-1.59 17.27-6.65a5.49 5.49 0 0 1 .83 2.84ZM18.38 51.58c8.08 0 14.6 2.65 14.6 5.83s-6.66 5.84-14.87 5.84-14.88-2.62-14.88-5.84 6.45-5.77 14.48-5.83Zm-.06-1.94c9.89 0 17.89 4.29 17.89 9.49s-8.11 9.49-18.1 9.49S0 64.37 0 59.13s8-9.45 17.9-9.49Zm17.89 20.07c0 5.23-8.11 9.49-18.1 9.49S0 74.94 0 69.71A5.27 5.27 0 0 1 .77 67c2.23 3.89 9.14 6.75 17.34 6.75 5.36 0 14.39-1.61 17.33-6.77a5.49 5.49 0 0 1 .77 2.73ZM7 47.29l33.32-34.23c7.4 7.25 14.57 16 21.89 23.24l26.7-26.82-8.6-8.59L107.44 0l-1.2 26.73-8.87-8.79c-5.92 6-19.92 19.22-25.84 25.14-7.53 7.49-11.07 7.63-18.53.14L40.32 29.14 24.8 47.25a51.23 51.23 0 0 0-17.8.04Zm103.5-10.86-.2 2.21-8.3-.73a7.6 7.6 0 0 1 1.42 3l-2-.17a6.59 6.59 0 0 0-.9-2 4.12 4.12 0 0 0-1.73-1.55l.21-1.76 11.56 1Zm12.27 33.74c0 5.24-8.11 9.5-18.11 9.5s-18.1-4.26-18.1-9.5a5.61 5.61 0 0 1 .82-2.84C89.7 71.19 96.56 74 104.67 74c5.33 0 14.26-1.6 17.33-6.67a5.52 5.52 0 0 1 .83 2.84Zm.1-9.88c0 5.24-8.11 9.49-18.1 9.49s-18.11-4.25-18.11-9.49a5.5 5.5 0 0 1 .83-2.84c2.3 3.86 9.17 6.65 17.28 6.65 5.35 0 14.25-1.58 17.27-6.65a5.49 5.49 0 0 1 .83 2.84ZM105.05 32c8.08 0 14.6 2.66 14.6 5.84s-6.66 5.83-14.87 5.83S89.9 41 89.9 37.8s6.45-5.8 14.48-5.8Zm-.05-2c9.89 0 17.89 4.3 17.89 9.5s-8.12 9.5-18.11 9.5-18.11-4.26-18.11-9.49 8-9.46 17.9-9.5Zm17.89 20.07c0 5.24-8.11 9.49-18.1 9.49s-18.11-4.25-18.11-9.49a5.24 5.24 0 0 1 .77-2.72c2.23 3.9 9.14 6.76 17.34 6.76 5.36 0 14.39-1.61 17.33-6.76a5.45 5.45 0 0 1 .77 2.72Zm-.1 29.82c0 5.23-8.11 9.49-18.11 9.49s-18.1-4.26-18.1-9.49a5.55 5.55 0 0 1 .82-2.84c2.31 3.85 9.17 6.65 17.28 6.65 5.36 0 14.26-1.59 17.28-6.65a5.49 5.49 0 0 1 .83 2.84Zm-54.73-26-.22 2.39-9-.79a8.21 8.21 0 0 1 1.54 3.25l-2.17-.19a6.67 6.67 0 0 0-1-2.13 4.36 4.36 0 0 0-1.88-1.68l.18-1.94 4.12.36a11.86 11.86 0 0 0 2.67.27h.34l5.4.47Zm1.44-2.82c4.22 1.05 7 2.9 7 5 0 3.27-6.76 5.92-15.1 5.92s-15.09-2.66-15.09-5.92c0-2.29 3.31-4.27 8.15-5.26-.63-.43-1.27-.9-1.91-1.43-5.67 1.64-9.51 4.8-9.51 8.43 0 5.32 8.22 9.63 18.36 9.63s18.37-4.31 18.37-9.63c0-3.39-3.35-6.38-8.41-8.09-.64.5-1.26.95-1.88 1.35ZM79.78 69c0 5.32-8.23 9.63-18.37 9.63S43.05 74.32 43.05 69a5.41 5.41 0 0 1 .77-2.76c2.27 4 9.28 6.87 17.59 6.87 5.44 0 14.61-1.64 17.6-6.87a5.63 5.63 0 0 1 .77 2.76Z"/></symbol><symbol xmlns="http://www.w3.org/2000/svg" id="man" viewBox="0 0 24 24"><path d="M20.822 18.096c-3.439-.794-6.641-1.49-5.09-4.418C20.451 4.766 16.983 0 12 0 6.919 0 3.536 4.949 8.268 13.678c1.597 2.945-1.725 3.641-5.09 4.418C.199 18.784 0 20.239 0 22.759L.005 24h10.483l.704-3h1.615l.704 3h10.483l.005-1.241c.001-2.52-.198-3.975-3.177-4.663zM12.591 20h-1.164l-.91-2h2.994l-.92 2z"/></symbol><symbol xmlns="http://www.w3.org/2000/svg" id="phone" viewBox="0 0 24 24"><path d="m18.48 22.926-1.193.658C10.308 27.205-1.795 6.09 5.008 2.1l1.145-.637L9.867 7.93l-1.139.632c-2.067 1.245 2.76 9.707 4.879 8.545l1.162-.642 3.711 6.461zM8.672 0l-1.68.975 3.714 6.466 1.681-.975L8.672 0zm8.613 14.997-1.68.975 3.714 6.467L21 21.464l-3.715-6.467z"/></symbol><symbol xmlns="http://www.w3.org/2000/svg" xml:space="preserve" id="power" viewBox="0 0 238.13 238.13"><path xmlns="http://www.w3.org/2000/svg" d="M205.07 98.678c-1.194-2.728-3.891-4.49-6.869-4.49h-62.33l30.023-84.167c1.197-3.357-.134-7.094-3.184-8.938-3.052-1.845-6.979-1.287-9.395 1.333l-118.9 128.94c-2.019 2.189-2.551 5.366-1.355 8.094 1.194 2.728 3.891 4.49 6.869 4.49H80.45c4.143 0 7.5-3.358 7.5-7.5s-3.357-7.5-7.5-7.5H57.047l82.365-89.315-21.24 59.543c-.818 2.297-.432 4.849.974 6.842 1.405 1.993 3.73 3.178 6.169 3.178h55.772l-82.353 89.305 21.243-59.533c.82-2.297.472-4.849-.934-6.842s-3.691-3.179-6.13-3.179h-.074c-3.525 0-6.455 2.432-7.25 5.709l-33.348 93.456c-1.198 3.357.133 7.094 3.183 8.938 1.205.729 2.547 1.083 3.878 1.083 2.039 0 4.055-.831 5.517-2.416l118.9-128.94c2.02-2.188 2.552-5.364 1.357-8.092z" data-original="#000000"/></symbol><symbol xmlns="http://www.w3.org/2000/svg" xmlns:xlink="http://www.w3.org/1999/xlink" xml:space="preserve" id="profile" viewBox="0 0 460.8 460.8"><g xmlns="http://www.w3.org/2000/svg"><path d="M230.432 239.282c65.829 0 119.641-53.812 119.641-119.641C350.073 53.812 296.261 0 230.432 0s-119.64 53.812-119.64 119.641 53.812 119.641 119.64 119.641zM435.755 334.89c-3.135-7.837-7.314-15.151-12.016-21.943-24.033-35.527-61.126-59.037-102.922-64.784-5.224-.522-10.971.522-15.151 3.657-21.943 16.196-48.065 24.555-75.233 24.555s-53.29-8.359-75.233-24.555c-4.18-3.135-9.927-4.702-15.151-3.657-41.796 5.747-79.412 29.257-102.922 64.784-4.702 6.792-8.882 14.629-12.016 21.943-1.567 3.135-1.045 6.792.522 9.927 4.18 7.314 9.404 14.629 14.106 20.898 7.314 9.927 15.151 18.808 24.033 27.167 7.314 7.314 15.673 14.106 24.033 20.898 41.273 30.825 90.906 47.02 142.106 47.02s100.833-16.196 142.106-47.02c8.359-6.269 16.718-13.584 24.033-20.898 8.359-8.359 16.718-17.241 24.033-27.167 5.224-6.792 9.927-13.584 14.106-20.898 2.611-3.135 3.133-6.793 1.566-9.927z" data-original="#000000"/></g></symbol><symbol xmlns="http://www.w3.org/2000/svg" xmlns:xlink="http://www.w3.org/1999/xlink" xml:space="preserve" id="quotes" viewBox="0 0 508.044 508.044"><path d="M.108 352.536c0 66.794 54.144 120.938 120.937 120.938 66.794 0 120.938-54.144 120.938-120.938s-54.144-120.937-120.938-120.937c-13.727 0-26.867 2.393-39.168 6.61C109.093 82.118 230.814-18.543 117.979 64.303-7.138 156.17-.026 348.84.114 352.371c0 .055-.006.104-.006.165zM266.169 352.536c0 66.794 54.144 120.938 120.938 120.938s120.938-54.144 120.938-120.938S453.9 231.599 387.106 231.599c-13.728 0-26.867 2.393-39.168 6.61C375.154 82.118 496.875-18.543 384.04 64.303 258.923 156.17 266.034 348.84 266.175 352.371c0 .055-.006.104-.006.165z"/></symbol><symbol xmlns="http://www.w3.org/2000/svg" id="register" viewBox="0 0 512 512"><path xmlns="http://www.w3.org/2000/svg" d="M64 392V96h352v184h16V48a32.036 32.036 0 0 0-32-32H80a32.036 32.036 0 0 0-32 32v344a32.036 32.036 0 0 0 32 32h192v-16H80a16.019 16.019 0 0 1-16-16zM80 32h320a16.019 16.019 0 0 1 16 16v32H64V48a16.019 16.019 0 0 1 16-16z" data-original="#000000" transform="matrix(.69686 0 0 .69686 84.323151 99.803299)"/><path xmlns="http://www.w3.org/2000/svg" d="M80 48h16v16H80zM112 48h16v16h-16zM144 48h16v16h-16zM472 344h-25.965l-8.507-29.772c-4.456-15.538-19.79-25.322-35.759-22.817L285.316 309.8c-15.963 2.512-25.486 19.17-19.552 34.2H248c-1.58 0-3.124.468-4.438 1.344L221.578 360H208v16h13.578l21.984 14.656c1.314.876 2.858 1.344 4.438 1.344h36.686l19.448 19.447c1.256 16.484 11.807 30.807 27.178 36.894L344 453.416v92.885l16-7.805V448c0-3.271-1.991-6.213-5.028-7.428l-17.718-7.087C326.809 429.347 319.963 419.235 320 408c0-2.122-.843-4.157-2.343-5.657l-27.029-27.03c-4.883-4.882-2.649-13.22 4.021-15.007.757-.203 1.538-.306 2.322-.306h3.023c1.392.001 2.765.326 4.011.947l59.256 29.628 23.082 23.082 11.314-11.314L387.314 392H432v115.274L448 496V392h24c18.475 0 30.022-20 20.785-36-4.288-7.426-12.211-12-20.785-12Zm-233.578 24 12-8h23.251c-1.972 5.116-2.208 10.738-.67 16h-22.581l-12-8Zm58.549-24h-7.716c-7.124.016-11.594-7.687-8.046-13.865 1.399-2.435 3.828-4.103 6.603-4.535l116.453-18.387c7.985-1.257 15.655 3.636 17.879 11.408l7.25 25.379h-42.08l10.343-10.343-11.314-11.314L364.687 344h-67.716Zm72.918 32-32-16H448v16h-78.111ZM472 376h-8v-16h8c6.158 0 10.007 6.667 6.928 12-1.429 2.475-4.07 4-6.928 4ZM232 256V128a8 8 0 0 0-8-8H96a8 8 0 0 0-8 8v128a8 8 0 0 0 8 8h128a8 8 0 0 0 8-8zm-72-40a24.028 24.028 0 0 1 24 24v8h-48v-8a24.028 24.028 0 0 1 24-24zm-16-32a16 16 0 1 1 16 16 16.019 16.019 0 0 1-16-16zm72 64h-16v-8a39.994 39.994 0 0 0-17.632-33.146 32 32 0 1 0-44.736 0A39.994 39.994 0 0 0 120 240v8h-16V136h112zM128 280h96v16h-96zM96 280h16v16H96zM296 136h96v16h-96zM264 168h128v16H264zM264 200h128v16H264zM264 232h128v16H264zM264 136h16v16h-16zM448 56h16v160h-16zM448 232h16v16h-16zM91.61 345.435l-11.038 27.594 14.856 5.942 9.384-23.459 4.993 9.987a14 14 0 0 0 20.288 5.387l12.887-8.592 9.605 9.605a13.907 13.907 0 0 0 9.9 4.1H192V360h-28.687l-10.177-10.179a14.037 14.037 0 0 0-17.666-1.749l-12.37 8.244-5.972-11.944a14 14 0 0 0-25.521 1.063z" data-original="#000000" transform="matrix(.69686 0 0 .69686 84.323151 99.803299)"/><circle cx="257.544" cy="255.919" r="233.937" fill="none" stroke-linejoin="round" stroke-miterlimit="10" stroke-width="10px"/></symbol><symbol xmlns="http://www.w3.org/2000/svg" xmlns:xlink="http://www.w3.org/1999/xlink" xml:space="preserve" id="rental" viewBox="0 0 512.004 512.004"><g xmlns="http://www.w3.org/2000/svg"><path d="M492.016 390.004c0-21.377-7.858-40.941-20.814-56h4.083c19.881-.738 19.866-29.269 0-30h-30.539l-31.697-62.097c-13.073-25.611-38.045-40.902-66.8-40.902H165.706c-28.766 0-53.742 15.298-66.811 40.923l-31.662 62.076H36.786c-19.881.738-19.866 29.269 0 30h3.996c-12.956 15.059-20.814 34.624-20.814 56l.067 88.799c0 18.307 14.894 33.201 33.201 33.201h47.597c18.308 0 33.202-14.894 33.202-33.201v-26.798h244v26.798c0 18.307 14.894 33.201 33.201 33.201h47.597c18.308 0 33.202-14.894 33.202-33.201zm-442.048 32v-32c0-30.878 25.122-56 56-56h300.048c30.878 0 56 25.121 56 56v32zm75.652-166.446c7.958-15.604 22.569-24.554 40.086-24.554H346.25c17.51 0 32.119 8.945 40.08 24.541l24.821 48.626c-1.7-.101-3.41-.167-5.135-.167H105.968c-1.728 0-3.441.066-5.144.167zm-21.584 223.245c0 1.735-1.466 3.201-3.202 3.201H53.237c-1.735 0-3.201-1.466-3.201-3.201v-26.798h54zm354.798 3.201h-47.597c-1.735 0-3.201-1.466-3.201-3.201v-26.798h54v26.798c0 1.735-1.467 3.201-3.202 3.201z" data-original="#000000"/><path d="M129.315 363.004H95.038c-19.881.738-19.866 29.269 0 30h34.277c19.881-.737 19.866-29.269 0-30zM317.036 363.004H194.948c-19.881.738-19.866 29.269 0 30h122.088c19.881-.737 19.866-29.269 0-30zM417.175 363.004h-30.779c-19.881.738-19.866 29.269 0 30h30.779c19.881-.737 19.866-29.269 0-30zM54.502 152.004c8.284 0 15-6.716 15-15V98.933l32.502 46.805c4.754 6.853 14.153 8.456 20.876 3.765 6.805-4.725 8.49-14.072 3.765-20.876l-28.332-40.8C146.428 71.452 135.912 1.038 84.502.004h-30c-8.284 0-15 6.716-15 15v122c0 8.285 6.716 15 15 15zm15-122h15c19.877.756 19.862 29.251 0 30h-15zM177.35 151.997c.143 0 42 .008 42 .008 19.881-.738 19.866-29.269 0-30h-27V90.999h27c19.881-.738 19.866-29.269 0-30h-27V30.005h27c19.881-.738 19.866-29.269 0-30 0 0-41.815-.005-42-.005-8.284 0-15 6.716-15 15v121.997c0 8.284 6.715 15 15 15zM282.375 152.001c8.284 0 15-6.716 15-15V84.664l26.482 58.637c2.464 5.456 7.87 8.828 13.665 8.828 8.157.081 15.096-6.831 15.005-15.001V15.009c-.738-19.881-29.269-19.866-30 0V67.47L296.046 8.833c-2.909-6.441-9.921-9.977-16.828-8.49-6.909 1.488-11.842 7.597-11.842 14.664v121.994c-.001 8.284 6.715 15 14.999 15zM395.554 30.005h15.974v107.002c.738 19.881 29.269 19.866 30 0V30.005h15.974c19.881-.738 19.866-29.269 0-30h-61.948c-19.881.738-19.866 29.269 0 30z" data-original="#000000"/></g></symbol><symbol xmlns="http://www.w3.org/2000/svg" xmlns:xlink="http://www.w3.org/1999/xlink" xml:space="preserve" id="seat" viewBox="0 0 512 512"><g xmlns="http://www.w3.org/2000/svg"><path d="M502 492c-5.51 0-10 4.49-10 10s4.49 10 10 10 10-4.49 10-10-4.49-10-10-10zM423.036 0c-28.102 0-50.964 22.862-50.964 50.964v45.744l-61.547 84.956H168c-16.542 0-30 13.458-30 30s13.458 30 30 30h99.058L245.081 272H108c-38.598 0-70 31.402-70 70s31.402 70 70 70h128.176l14.559 40H128c-16.542 0-30 13.458-30 30 0 3.506.61 6.87 1.72 10H10c-5.51 0-10 4.49-10 10s4.49 10 10 10h452c5.51 0 10-4.49 10-10s-4.49-10-10-10H316.28c1.11-3.13 1.72-6.494 1.72-10v-20c0-1.18-.209-2.35-.617-3.458L300.234 412h7.767c3.71 0 7.135-2.06 8.865-5.376l156.012-301.022c.737-1.422 1.122-3 1.122-4.602 0-.202-.003-.4-.008-.598.005-.134.008-.268.008-.402V50.964C474 22.862 451.138 0 423.036 0zM168 221.663c-5.514 0-10-4.486-10-10s4.486-10 10-10h180.464l-13.722 20H168zM129.72 392H108c-27.57 0-50-22.43-50-50s22.43-50 50-50h142.185c3.206 0 6.217-1.537 8.098-4.133l33.472-46.203h29.264L272.76 312H178c-27.57 0-50 22.43-50 50v20c0 3.506.61 6.87 1.72 10zm28.28 0c-5.514 0-10-4.486-10-10v-20c0-16.542 13.458-30 30-30h92.27l7.718 20H218c-5.51 0-10 4.49-10 10s4.49 10 10 10h67.705l7.718 20H158zm-30 100c-5.514 0-10-4.486-10-10s4.486-10 10-10h137.017c3.263 0 6.32-1.592 8.191-4.264 1.872-2.673 2.321-6.09 1.206-9.156L257.46 412h21.46L298 463.784V482c0 5.514-4.486 10-10 10H128zm181.364-114.242-20.687-53.607 81.509-118.797 21.739 14.09-82.561 158.314zM454 98.563 401.105 201.56l-28.214-18.287c-1.485-.963-3.133-1.474-4.785-1.58-.034-.017-.069-.029-.106-.029h-32.778l54.904-75.787c.154-.212.299-.431.436-.655.054-.086.115-.188.16-.267.884-1.524 1.35-3.255 1.35-5.017V50.964c0-17.074 13.89-30.964 30.964-30.964S454 33.89 454 50.964v47.599z" data-original="#000000"/><path d="M178 352c-5.51 0-10 4.49-10 10s4.49 10 10 10 10-4.49 10-10-4.49-10-10-10z" data-original="#000000"/></g></symbol><symbol xmlns="http://www.w3.org/2000/svg" xmlns:xlink="http://www.w3.org/1999/xlink" xml:space="preserve" id="security-deposit" viewBox="0 0 64 64"><g xmlns="http://www.w3.org/2000/svg"><path d="M27 45v-3c0-1.654-1.346-3-3-3-.552 0-1-.448-1-1v-1h1c.552 0 1 .448 1 1v1h2v-1c0-1.302-.839-2.402-2-2.816V33h-2v2h-2v3c0 1.654 1.346 3 3 3 .552 0 1 .448 1 1v1h-1c-.552 0-1-.448-1-1v-1h-2v1c0 1.302.839 2.402 2 2.816V47h2v-2z" data-original="#000000"/><path d="M61 7H47V4c0-1.654-1.346-3-3-3H4C2.346 1 1 2.346 1 4v52c0 1.371.93 2.518 2.188 2.874l.653 2.61c.222.893 1.02 1.516 1.94 1.516h36.438c.92 0 1.718-.623 1.94-1.516l.653-2.61C46.07 58.518 47 57.371 47 56v-3h14c1.103 0 2-.897 2-2V9c0-1.103-.897-2-2-2zm-37.967.021c3.503.15 5.293 1.043 5.954 1.465-.087 1.591-.595 3.122-1.483 4.455l-.039.059h-2.839c-.911-1.863-1.458-3.908-1.593-5.979zM32 17H21v2h11c.552 0 1 .448 1 1s-.448 1-1 1H21v2h11c.552 0 1 .448 1 1s-.448 1-1 1H21v2h9c.552 0 1 .448 1 1s-.448 1-1 1H18.472c-2.567 0-5.136-.569-7.472-1.638V14.438c1.795-1.684 4.06-2.815 6.481-3.239L19.382 15H32c.552 0 1 .448 1 1s-.448 1-1 1zM9 27H7V15h2zm11.618-14-1.477-2.953C19.63 9.392 20.397 9 21.236 9h.021c.234 1.372.625 2.718 1.167 4zm-3.304-3.8c-2.883.469-5.592 1.793-7.719 3.8H9V9h8.432c-.044.063-.078.134-.118.2zM5 27H3V15h2zm4 2h.768c2.08 1.008 4.341 1.646 6.642 1.887l-2.919 3.649c-1.605 2.008-2.49 4.528-2.49 7.1 0 3.883 1.96 7.314 4.939 9.364H9zm4 12.636c0-2.118.729-4.196 2.053-5.85L18.882 31h10.237l3.829 4.786C34.271 37.439 35 39.518 35 41.636 35 46.799 30.799 51 25.636 51h-3.271C17.201 51 13 46.799 13 41.636zm24 0c0-2.571-.885-5.092-2.49-7.1l-3.116-3.895C32.344 30.137 33 29.149 33 28c0-.395-.081-.77-.22-1.116C34.055 26.538 35 25.383 35 24c0-.771-.301-1.468-.78-2 .48-.532.78-1.229.78-2s-.301-1.468-.78-2c.48-.532.78-1.229.78-2 0-1.654-1.346-3-3-3h-2.221c.645-1.247 1.042-2.6 1.17-4H39v42h-6.939C35.04 48.949 37 45.519 37 41.636zM41 9h16v42H41zM4 3h40c.552 0 1 .448 1 1v3H30.358c-.85-.633-3.276-2-8.358-2h-1v1c0 .333.011.667.029 1H7v6H3V4c0-.552.448-1 1-1zm1.78 58-.5-2h37.439l-.501 2zM45 56c0 .552-.448 1-1 1H4c-.552 0-1-.448-1-1V29h4v24h38zm16-5h-2V9h2z" data-original="#000000"/></g></symbol><symbol xmlns="http://www.w3.org/2000/svg" xml:space="preserve" id="speedometer" viewBox="0 0 950 950"><g xmlns="http://www.w3.org/2000/svg"><path d="M949.87 741.31c-.072-2.064-.145-4.139-.217-6.221-.075-2.082-.152-4.17-.229-6.268l-.06-1.57-.03-.787-.008-.197-.02-1.76-.006-.082-.025-.326-.201-2.607c-.271-3.479-.542-6.973-.813-10.467l-.207-2.645-.312-3.43c-.216-2.281-.431-4.561-.646-6.836-.223-2.271-.447-4.539-.669-6.799-.115-1.129-.229-2.256-.343-3.381-.138-1.041-.276-2.08-.414-3.119-1.139-8.242-2.156-16.342-3.608-24.129-.686-3.896-1.319-7.727-2.031-11.461-.777-3.725-1.537-7.367-2.277-10.914-1.402-7.098-3.163-13.727-4.647-19.855-.38-1.529-.752-3.029-1.115-4.492-.404-1.457-.8-2.877-1.185-4.264-.782-2.766-1.523-5.391-2.221-7.855-.71-2.461-1.336-4.771-1.99-6.889-.674-2.111-1.292-4.051-1.851-5.803-.829-2.574-1.528-4.742-2.079-6.455-.815-2.529-3.487-3.951-6.043-3.223l-160.61 45.771c-2.447.697-3.964 3.135-3.498 5.637.174.934.373 2.004.595 3.201.229 1.205.483 2.541.759 3.994.261 1.457.466 3.053.729 4.74.258 1.689.532 3.488.821 5.383.141.947.308 1.912.439 2.91.114 1 .23 2.025.35 3.07.447 4.184 1.115 8.67 1.413 13.48.197 2.393.401 4.852.609 7.361.156 2.518.234 5.098.368 7.709.348 5.213.282 10.641.382 16.115l.023 2.039-.072 1.805c-.041 1.203-.083 2.408-.124 3.617-.032 1.203-.065 2.41-.098 3.619l-.038 1.807-.11 2.602c-.148 3.502-.299 7.002-.448 10.49l-.111 2.613-.015.326-.003.08c.002.393-.03-3.111-.02-1.598l-.013.129-.048.516-.095 1.031c-.124 1.373-.248 2.738-.371 4.102-.119 1.359-.238 2.715-.355 4.062-.16 1.342-.319 2.678-.479 4.004-.341 2.65-.551 5.275-.973 7.832-.37 2.559-.734 5.072-1.09 7.535-.426 2.445-.842 4.838-1.246 7.166-.366 2.33-.856 4.574-1.292 6.746-.456 2.168-.819 4.273-1.292 6.271-.461 1.998-.903 3.91-1.324 5.73-.208.898-.41 1.773-.606 2.625-.202.73-.397 1.438-.588 2.125-.112.42-.218.814-.327 1.221h196.44c2.633 0 4.826-2.066 4.926-4.697.001-.016.001-.031.002-.047.163-3.658.331-7.414.503-11.254.073-3.836.147-7.756.224-11.742.112-3.982-.009-8.029-.02-12.121-.023-2.045-.044-4.102-.066-6.17zM898.79 535.13c2.635-1.061 3.837-4.113 2.622-6.68-.54-1.141-1.171-2.475-1.886-3.984-.675-1.418-1.421-2.988-2.231-4.697-1.049-2.137-2.183-4.447-3.396-6.916-1.222-2.459-2.521-5.076-3.893-7.834-.695-1.434-1.378-2.617-2.093-3.963-.712-1.316-1.441-2.662-2.186-4.037-1.497-2.744-3.028-5.613-4.671-8.551-1.697-2.906-3.451-5.912-5.254-9.002-.904-1.541-1.821-3.104-2.749-4.684-.971-1.556-1.954-3.131-2.947-4.723-1.997-3.171-4.038-6.412-6.112-9.706-4.377-6.45-8.734-13.196-13.597-19.761-1.194-1.653-2.395-3.312-3.598-4.976l-1.81-2.494-1.884-2.453c-2.52-3.263-5.05-6.537-7.58-9.812-2.575-3.237-5.239-6.406-7.85-9.587-1.32-1.58-2.599-3.183-3.946-4.727-1.351-1.539-2.697-3.074-4.04-4.603-1.343-1.523-2.68-3.043-4.011-4.554-1.323-1.517-2.657-3.008-4.033-4.45-2.724-2.901-5.414-5.766-8.06-8.585-2.65-2.81-5.394-5.451-8.005-8.091-2.63-2.626-5.186-5.205-7.796-7.6-2.581-2.416-5.093-4.766-7.521-7.04-2.418-2.279-4.887-4.349-7.187-6.399-2.319-2.028-4.542-3.971-6.656-5.819-2.168-1.787-4.225-3.481-6.157-5.073-1.934-1.586-3.743-3.07-5.416-4.442-1.676-1.367-3.279-2.552-4.692-3.657-2.058-1.579-3.796-2.913-5.177-3.973-2.105-1.616-5.106-1.271-6.798.776l-86.204 104.35c-1.625 1.968-1.486 4.844.327 6.64.721.712 1.553 1.536 2.489 2.463.897.901 1.925 1.855 2.979 2.969 1.054 1.113 2.192 2.318 3.409 3.604 1.219 1.28 2.515 2.642 3.88 4.078 1.317 1.482 2.702 3.043 4.147 4.67 1.427 1.642 2.987 3.272 4.471 5.09 1.497 1.8 3.044 3.66 4.636 5.573 1.621 1.878 3.168 3.917 4.77 5.977 1.585 2.074 3.279 4.119 4.871 6.312 1.593 2.186 3.212 4.408 4.851 6.658.836 1.107 1.629 2.262 2.41 3.434.79 1.164 1.584 2.332 2.381 3.506.798 1.168 1.601 2.342 2.404 3.52.802 1.178 1.537 2.41 2.312 3.615 1.522 2.432 3.1 4.828 4.596 7.277 1.458 2.473 2.917 4.947 4.369 7.41l1.09 1.838 1.021 1.877c.682 1.246 1.361 2.49 2.038 3.727 2.795 4.889 5.154 9.93 7.623 14.666 1.13 2.428 2.241 4.814 3.329 7.152.544 1.164 1.082 2.316 1.614 3.453.493 1.158.979 2.301 1.459 3.43.965 2.246 1.903 4.434 2.812 6.547.839 2.143 1.649 4.213 2.427 6.199.39.992.77 1.963 1.142 2.912.352.926.788 1.928 1.022 2.699.555 1.619 1.08 3.156 1.574 4.6.504 1.434.977 2.775 1.413 4.016.573 1.711 1.099 3.279 1.574 4.697.529 1.584.995 2.984 1.395 4.184.898 2.693 3.88 4.066 6.515 3.008l149.46-60.05zM459.81 348.75c1.306.178 2.75.375 4.324.59 1.564.272 3.256.567 5.063.882 1.804.31 3.724.639 5.747.987 1.758.292 3.579.716 5.472 1.112l54.404-111.28c-2.697-.421-5.372-.839-7.993-1.248-1.796-.267-3.564-.574-5.325-.794-1.761-.213-3.501-.424-5.218-.632-3.429-.407-6.764-.804-9.989-1.187-3.234-.277-6.359-.545-9.358-.802-3-.23-5.861-.533-8.6-.663-2.734-.134-5.328-.262-7.765-.382-2.435-.115-4.713-.222-6.818-.322-2.107-.034-4.043-.065-5.792-.093-2.46-.03-4.548-.055-6.222-.075-2.655-.032-4.852 2.043-4.979 4.695l-4.961 103.58c-.122 2.552 1.719 4.774 4.25 5.121 1.078.148 2.335.321 3.76.516zM606.03 405.78c1.462 1.063 2.848 2.071 4.15 3.02 1.304.934 2.525 1.808 3.654 2.617.489.336 1.296.948 1.955 1.438.679.507 1.326.99 1.939 1.448 1.339.999 2.521 1.881 3.533 2.636 2.276 1.698 5.506 1.124 7.065-1.25l71.03-108.2c1.56-2.374.803-5.567-1.661-6.98-1.096-.628-2.375-1.362-3.823-2.193-.665-.382-1.365-.783-2.101-1.205-.801-.453-1.638-.927-2.511-1.421-2.021-1.114-4.207-2.317-6.542-3.604-2.336-1.273-4.823-2.627-7.443-4.056-2.497-1.251-5.121-2.566-7.86-3.939-2.75-1.342-5.556-2.835-8.565-4.19-2.995-1.372-6.091-2.791-9.273-4.25-3.161-1.492-6.497-2.847-9.883-4.269-3.4-1.392-6.821-2.914-10.394-4.257-.905-.343-1.824-.69-2.736-1.036l-30.642 133c1.694 1.064 3.29 2.192 4.862 3.21 1.83 1.213 3.58 2.374 5.246 3.479zM364.43 348.21c1.372-.181 2.719-.405 4.064-.547 1.345-.136 2.674-.271 3.984-.405 2.615-.271 5.158-.535 7.619-.791 2.468-.165 4.853-.325 7.142-.479 1.142-.078 2.26-.154 3.353-.229 1.09-.073 2.182-.166 3.118-.167 1.929-.051 3.76-.098 5.479-.143 1.714-.054 3.316-.105 4.8-.152 1.829-.012 3.509-.023 5.025-.033 1.67-.009 3.146-.017 4.408-.024 2.84-.015 5.072-2.42 4.886-5.254l-6.394-97.57c-.187-2.834-2.713-4.927-5.53-4.571-1.253.158-2.716.343-4.373.552-1.536.195-3.237.412-5.089.648-2.188.325-4.554.675-7.083 1.05-2.521.384-5.205.793-8.034 1.224-1.448.204-2.781.475-4.18.739-1.395.266-2.822.539-4.279.817-2.909.562-5.938 1.148-9.076 1.754-3.113.709-6.333 1.443-9.642 2.196-1.651.379-3.325.764-5.019 1.154-1.692.396-3.389.88-5.11 1.325-3.435.915-6.942 1.85-10.51 2.8-3.532 1.065-7.123 2.147-10.757 3.243-1.812.561-3.643 1.09-5.463 1.689-1.812.619-3.637 1.24-5.467 1.865-1.827.626-3.661 1.254-5.5 1.885-1.84.626-3.683 1.255-5.501 1.972-3.645 1.391-7.304 2.788-10.963 4.185-3.643 1.426-7.226 3.006-10.817 4.501-1.79.763-3.585 1.499-5.354 2.282-1.757.811-3.508 1.619-5.253 2.425-1.741.806-3.476 1.61-5.201 2.409-1.725.798-3.443 1.584-5.113 2.451-3.352 1.692-6.663 3.364-9.919 5.008-3.257 1.633-6.361 3.435-9.444 5.094-3.069 1.69-6.087 3.302-8.934 5.039-2.863 1.698-5.648 3.351-8.342 4.949-2.702 1.576-5.208 3.278-7.664 4.816-2.439 1.563-4.776 3.062-6.999 4.487-2.175 1.493-4.239 2.909-6.178 4.24-1.934 1.332-3.744 2.578-5.418 3.731-1.672 1.153-3.151 2.296-4.514 3.284-1.847 1.364-3.424 2.528-4.7 3.47-2.131 1.573-2.631 4.544-1.141 6.735l40.515 59.566c1.442 2.12 4.261 2.785 6.494 1.524 1.029-.58 2.245-1.267 3.632-2.049 1.209-.669 2.517-1.459 3.994-2.228 1.476-.77 3.072-1.6 4.777-2.488 1.7-.889 3.51-1.835 5.417-2.832 1.94-.93 3.979-1.908 6.107-2.928 2.138-.996 4.307-2.137 6.646-3.132 2.321-1.019 4.721-2.072 7.189-3.155 2.443-1.125 5.031-2.108 7.649-3.158 2.632-1.02 5.268-2.174 8.029-3.149 2.749-.991 5.545-1.998 8.374-3.018 1.403-.533 2.847-.984 4.294-1.446 1.444-.465 2.896-.932 4.353-1.401 1.454-.47 2.914-.942 4.378-1.416 1.472-.447 2.965-.847 4.448-1.275 2.979-.824 5.938-1.738 8.938-2.504 3.002-.743 6.004-1.486 8.994-2.225 1.484-.395 2.99-.704 4.489-1.013 1.496-.315 2.988-.629 4.475-.942 1.482-.315 2.959-.628 4.429-.94 1.473-.294 2.954-.521 4.415-.784 2.922-.507 5.808-1.009 8.648-1.501 2.85-.393 5.653-.781 8.399-1.16zM88.175 425.22c-1.062 1.502-2.128 3.011-3.199 4.526-1.068 1.514-2.14 3.034-3.216 4.559-1.071 1.527-2.073 3.111-3.115 4.669-2.054 3.137-4.156 6.25-6.168 9.422-1.965 3.199-3.93 6.398-5.887 9.585l-1.46 2.386-1.386 2.425c-.921 1.612-1.839 3.221-2.754 4.822-3.74 6.353-6.989 12.847-10.291 19.015-1.537 3.145-3.049 6.238-4.529 9.266-.734 1.512-1.461 3.01-2.178 4.488-.675 1.498-1.341 2.979-1.999 4.441-1.31 2.918-2.584 5.758-3.817 8.504-1.15 2.781-2.262 5.467-3.329 8.045-1.046 2.586-2.103 5.033-3.004 7.408-.889 2.377-1.733 4.633-2.527 6.752-.79 2.117-1.529 4.098-2.212 5.93-.631 1.85-1.21 3.549-1.734 5.084-.68 2.018-1.264 3.75-1.741 5.168-.845 2.506.44 5.225 2.91 6.172l37.71 14.457c2.4.92 5.103-.154 6.212-2.473.55-1.148 1.207-2.523 1.962-4.102.626-1.301 1.318-2.742 2.073-4.311.802-1.547 1.669-3.217 2.596-5.004.924-1.781 1.906-3.68 2.942-5.68 1.044-1.994 2.246-4.039 3.439-6.199 1.208-2.148 2.467-4.387 3.77-6.705 1.373-2.273 2.792-4.625 4.252-7.043.727-1.207 1.464-2.43 2.21-3.668.785-1.215 1.58-2.443 2.383-3.688 1.606-2.48 3.247-5.012 4.916-7.59 3.546-5.02 7.014-10.307 10.933-15.406.957-1.289 1.918-2.582 2.882-3.879l1.445-1.947 1.514-1.904c2.016-2.539 4.04-5.086 6.064-7.633 2.061-2.516 4.2-4.967 6.279-7.439 1.054-1.227 2.066-2.479 3.145-3.672 1.08-1.191 2.156-2.379 3.228-3.562 1.07-1.182 2.135-2.359 3.195-3.531 1.05-1.178 2.11-2.335 3.211-3.444 2.166-2.243 4.306-4.459 6.411-6.64 2.101-2.177 4.294-4.197 6.364-6.239 2.086-2.027 4.104-4.027 6.182-5.86 2.044-1.86 4.032-3.669 5.956-5.42 1.908-1.761 3.874-3.333 5.69-4.911 1.828-1.557 3.58-3.049 5.246-4.468 1.636-1.295 3.188-2.523 4.646-3.679 1.45-1.154 2.807-2.235 4.062-3.235.576-.476 1.356-1.046 2.015-1.547.676-.511 1.321-.997 1.933-1.458 1.333-1.007 2.51-1.895 3.518-2.655 2.267-1.711 2.618-4.973.774-7.133l-42.935-50.299c-1.844-2.16-5.121-2.325-7.166-.355-.909.876-1.972 1.899-3.174 3.058-.552.531-1.134 1.092-1.744 1.679-.621.603-1.212 1.152-1.982 1.939-1.472 1.485-3.063 3.092-4.764 4.808-1.692 1.717-3.493 3.544-5.392 5.47-1.765 1.912-3.621 3.922-5.557 6.019-1.912 2.113-3.974 4.242-5.969 6.576-2.003 2.322-4.073 4.723-6.202 7.19-2.155 2.438-4.24 5.057-6.385 7.714-2.129 2.671-4.373 5.336-6.514 8.16-2.135 2.824-4.305 5.695-6.501 8.603-1.116 1.441-2.183 2.929-3.237 4.439zM10.155 601.57c-.251 1.236-.545 2.684-.878 4.32-.305 1.502-.643 3.166-1.011 4.977-.361 1.852-.714 4.039-1.108 6.271-.388 2.254-.8 4.652-1.234 7.18-.21 1.26-.45 2.562-.649 3.875-.177 1.305-.357 2.639-.542 4-.704 5.453-1.631 11.32-2.165 17.588-.31 3.123-.628 6.33-.953 9.609-.268 3.283-.447 6.645-.678 10.053-.54 6.811-.639 13.875-.864 21.021L0 693.15l.013 2.697c.01 1.801.02 3.605.03 5.414.011 1.807.022 3.617.032 5.428l.017 2.717.104 2.719c.147 3.617.294 7.236.441 10.84l.111 2.695.034.873.048.65.096 1.299c.128 1.732.255 3.459.382 5.18s.254 3.434.379 5.139c.173 1.777.344 3.549.516 5.309.173 1.758.345 3.504.516 5.24.086.865.172 1.729.258 2.588.107.846.214 1.689.32 2.529.426 3.35.845 6.645 1.255 9.871.495 3.211.979 6.354 1.449 9.412.44 3.057 1.007 6.014 1.528 8.873.043.229.086.455.128.682.435 2.338 2.469 4.031 4.846 4.031h13.291c2.838 0 5.09-2.389 4.923-5.221-.045-.756-.091-1.52-.142-2.291-.166-2.756-.366-5.598-.43-8.531-.096-2.928-.194-5.936-.295-9.01-.019-3.072-.038-6.211-.057-9.404-.005-.797-.01-1.598-.015-2.4.017-.791.035-1.586.053-2.385.035-1.592.07-3.197.106-4.812.035-1.611.071-3.234.107-4.865.08-1.707.159-3.424.24-5.146.08-1.723.161-3.453.241-5.188l.061-1.303.03-.652.004-.082c0-.207.004.191.006.123l.012-.158.025-.314.202-2.523c.268-3.365.537-6.74.807-10.117l.206-2.527.291-2.521c.194-1.678.387-3.354.58-5.027.192-1.672.384-3.34.575-5.002l.285-2.488.369-2.471c1.012-6.57 1.872-13.033 3.132-19.221.591-3.1 1.12-6.15 1.727-9.119.661-2.957 1.307-5.85 1.936-8.666 1.164-5.641 2.673-10.885 3.901-15.746.315-1.213.623-2.402.924-3.562.318-1.143.661-2.225.977-3.297.637-2.133 1.242-4.156 1.81-6.059.581-1.918 1.058-3.633 1.614-5.354.583-1.756 1.117-3.365 1.601-4.82.526-1.586.991-2.986 1.389-4.186.895-2.693-.668-5.58-3.412-6.311l-33.319-8.885c-2.745-.733-5.537.992-6.103 3.775zM387.32 774.27c10.84 5.299 22.323 7.811 33.628 7.811 28.378 0 55.65-15.811 68.953-43.023 2.562-5.238 4.545-11.021 5.835-16.467l77.577-336.72 29.544-128.23 18.303-79.437c2.13-9.245-5.224-15.543-12.602-15.543-4.319 0-8.647 2.159-11.087 7.148l-92.189 188.57-153.18 313.31c-18.603 38.051-2.837 83.979 35.213 102.58zm36.472-108.43c20.759 0 37.588 16.828 37.588 37.588 0 20.758-16.829 37.588-37.588 37.588s-37.588-16.83-37.588-37.588c0-20.762 16.829-37.588 37.588-37.588z" data-original="#000000"/></g></symbol><symbol xmlns="http://www.w3.org/2000/svg" id="support" viewBox="0 0 66 66"><path d="M59.85 52.26a12 12 0 0 0-7.23-10.55l-9.79-3.93L41.14 35v-1.62a13.54 13.54 0 0 0 2.6-4.23 21.08 21.08 0 0 0 .85-3.38H45a2 2 0 0 0 1.91-1.49H47l1 .11h.14a1.46 1.46 0 0 0 1-.36 1.61 1.61 0 0 0 .51-1.03l.35-4.18a1.58 1.58 0 0 0-1.39-1.72l-1-.1h-.06a2 2 0 0 0-1.14-1.4v-.14C47.51 11 46 8.54 44 5.43 41.85 1.88 35.86.3 28.43 1.29a6.73 6.73 0 0 0-4.66 2.25 3.91 3.91 0 0 0-.71 1.53 3.56 3.56 0 0 0-2.13 1.14c-2 2.21-1.92 6.94-1.52 9.49a2 2 0 0 0-.93 1.3h-.08l-1 .1a1.59 1.59 0 0 0-1.4 1.72l.38 4.18a1.6 1.6 0 0 0 .62 1.08 1.48 1.48 0 0 0 1 .35h.15l1-.1a1.91 1.91 0 0 0 .65 1 2 2 0 0 0 1.2.47H21.34a19.26 19.26 0 0 0 .85 3.37 13.41 13.41 0 0 0 2.6 4.24V35L23 37.83l-9.31 3.76a12.57 12.57 0 0 0-7.54 11L5.7 64a1 1 0 0 0 1 1h52.6a1 1 0 0 0 1-1ZM32.18 40.14c-1.85-1.52-3.84-3.28-4.8-4.28a9.05 9.05 0 0 0 11 .1c-1 1-3 2.72-4.81 4.18Zm3.38 1a48.28 48.28 0 0 0 4.52-4l1 1.57-2.48 5.74a19 19 0 0 0-3.04-3.33ZM45 23.8l-.88-.06.57-6.4H45.58Zm3-4.75-.28 3.34-.45-.05h-.12l.28-3.34ZM22.39 7.57A1.68 1.68 0 0 1 23.88 7a1 1 0 0 0 .81-.3 1 1 0 0 0 .31-.78c0-.21-.1-2.13 3.72-2.64 6.55-.88 11.91.38 13.66 3.2s3 4.87 2.11 8.5c0 .13-.05.26-.08.39a2 2 0 0 0-1.16.61 13.89 13.89 0 0 0-1.08-3.15c-1.73-3.22-4.32-3.13-6.22-3.06h-.46a17.89 17.89 0 0 0-1.85.18c-2 .27-4.73.63-7.37-.48a1 1 0 0 0-.94.09 9.25 9.25 0 0 0-3.7 5.78h-.22c-.41-2.49-.35-6.34.98-7.77Zm-4.05 14.82-.28-3.34.47-.05.31 3.35a.4.4 0 0 0-.11 0ZM21 23.8l-.61-6.38.89-.1.62 6.4Zm2.25 1.38.17-.17a2 2 0 0 0 .45-1.45l-.47-5.13c0-.72.06-1.45.09-2.12A6.91 6.91 0 0 1 26 11.55a16.16 16.16 0 0 0 7.85.41c.65-.09 1.21-.16 1.64-.18H36c1.82-.06 3.25-.12 4.39 2 1 1.9 1.64 6.42 1.81 8.89l-.08.9a1.89 1.89 0 0 0 .22 1.1 1.3 1.3 0 0 0-.1.25c-.63 2.62-4.5 4.22-6.73 4.85a2.51 2.51 0 1 0 .17 2 17.2 17.2 0 0 0 6-2.77 14.78 14.78 0 0 1-4.19 5.16 7.08 7.08 0 0 1-8.92 0 14.2 14.2 0 0 1-4.43-5.73 17.62 17.62 0 0 1-.87-3.25ZM33.8 31a.51.51 0 1 1-.51-.51.51.51 0 0 1 .51.51Zm-8 6.12A45.06 45.06 0 0 0 30.13 41a14.71 14.71 0 0 0-3 3l-2.35-5.34ZM8.13 52.69a10.44 10.44 0 0 1 2.14-6 10.56 10.56 0 0 1 4.17-3.28l8.69-3.52 2.46 5.57a1.47 1.47 0 0 0 1.12 1.12 1.84 1.84 0 0 0 .33 0 1.5 1.5 0 0 0 1.29-.74 10 10 0 0 1 1-1.33l1.4 1.53L29 63H7.74ZM31 63l1.67-17.15a1 1 0 0 0-.25-.77l-1.72-1.92a15.19 15.19 0 0 1 1.33-1h1.64c.26.21.68.56 1.16 1l-1.52 1.93a1 1 0 0 0-.21.72L34.83 63Zm5.8 0-1.67-17 1.09-1.38a13.45 13.45 0 0 1 1.2 1.68 1.48 1.48 0 0 0 1.29.75A1.86 1.86 0 0 0 39 47a1.47 1.47 0 0 0 1.12-1.13l2.52-6 9.17 3.68a10.09 10.09 0 0 1 3.92 3 10 10 0 0 1 2.08 5.73L58.26 63Z"/></symbol><symbol xmlns="http://www.w3.org/2000/svg" id="triangle" viewBox="0 0 24 24"><path d="M12 21 0 3h24z"/></symbol><symbol xmlns="http://www.w3.org/2000/svg" id="twitter" viewBox="0 0 24 24"><path d="M12 2c5.514 0 10 4.486 10 10s-4.486 10-10 10S2 17.514 2 12 6.486 2 12 2zm0-2C5.373 0 0 5.373 0 12s5.373 12 12 12 12-5.373 12-12S18.627 0 12 0zm6.5 8.778c-.441.196-.916.328-1.414.388.509-.305.898-.787 1.083-1.362-.476.282-1.003.487-1.564.597-.448-.479-1.089-.778-1.796-.778-1.59 0-2.758 1.483-2.399 3.023-2.045-.103-3.86-1.083-5.074-2.572-.645 1.106-.334 2.554.762 3.287-.403-.013-.782-.124-1.114-.308-.027 1.14.791 2.207 1.975 2.445-.346.094-.726.116-1.112.042.313.978 1.224 1.689 2.3 1.709-1.037.812-2.34 1.175-3.647 1.021 1.09.699 2.383 1.106 3.773 1.106 4.572 0 7.154-3.861 6.998-7.324.482-.346.899-.78 1.229-1.274z"/></symbol><symbol xmlns="http://www.w3.org/2000/svg" xmlns:xlink="http://www.w3.org/1999/xlink" xml:space="preserve" id="user" viewBox="0 0 32 32"><g fill="none" stroke-linejoin="round" stroke-miterlimit="10"><circle cx="16" cy="16" r="15"/><path d="M26 27c0-5.523-4.477-10-10-10S6 21.477 6 27"/><circle cx="16" cy="11" r="6"/></g></symbol><symbol xmlns="http://www.w3.org/2000/svg" id="car-average" viewBox="0 0 24 24"><path d="M17.75 10c.138 0 .25.112.25.25v.255c0 .397-.463.495-.808.495l-.543-1h1.101zm-.721 1.753c.32.593.473 1.126.473 1.833 0 .685-.198 1.267-.503 1.991v.923c0 .276-.224.5-.5.5h-.75c-.276 0-.5-.224-.5-.5V16h-6.5v.5c0 .276-.224.5-.5.5H7.5c-.276 0-.5-.224-.5-.5v-.924c-.304-.724-.503-1.306-.503-1.991 0-.707.154-1.24.473-1.833.414-.768.926-1.726 1.465-2.626.415-.69.631-.853 1.139-.944C10.341 8.045 11.033 8 12 8s1.659.045 2.426.182c.508.091.725.253 1.139.945.539.9 1.05 1.857 1.464 2.626zM9 13.25c0-.414-.336-.75-.75-.75s-.75.336-.75.75.336.75.75.75.75-.336.75-.75zm5 .5c0-.138-.112-.25-.25-.25h-3.5c-.138 0-.25.112-.25.25s.112.25.25.25h3.5c.138 0 .25-.112.25-.25zm1.471-2.764s-.37-.913-.815-1.571c-.101-.149-.258-.251-.435-.283-.756-.136-1.418-.179-2.221-.179s-1.465.043-2.22.179c-.177.032-.334.134-.435.283-.445.658-.815 1.571-.815 1.571.82.157 2.155.248 3.471.248s2.649-.091 3.47-.248zM16.5 13.25c0-.414-.336-.75-.75-.75s-.75.336-.75.75.336.75.75.75.75-.336.75-.75zM7.351 10H6.25c-.138 0-.25.112-.25.25v.255c0 .397.463.495.808.495l.543-1zm16.16-1.328-1.874.711c.129.47.236.949.294 1.444h2.001c-.072-.742-.219-1.459-.421-2.155zM21.91 5.267l-1.504 1.338c.279.432.514.893.725 1.366l1.873-.711c-.303-.702-.668-1.369-1.094-1.993zm.09 7.06C21.825 17.689 17.403 22 12 22 6.486 22 2 17.514 2 12c0-1.466.287-3.698 1.797-3.844C5.319 8.009 6 7.672 6.675 6.821c.485-.612 1.218-1.525 1.218-1.525l-.997-.797L8.39 2.63c.22-.275.175-.677-.1-.897-.275-.22-.677-.175-.897.1l-1.494 1.87-.997-.797 1.494-1.87c.22-.275.175-.677-.1-.897-.276-.219-.678-.174-.898.101L3.905 2.11l-.997-.797s-.739.876-1.207 1.501C1.076 3.648.619 4.793.86 5.849 1.294 7.753 0 8.271 0 12c0 6.627 5.373 12 12 12 6.517 0 11.825-5.198 12-11.673h-2zm-2.514-6.912 1.498-1.333c-.459-.519-.949-1.011-1.491-1.444l-1.298 1.535c.47.372.895.794 1.291 1.242z"/></symbol><symbol xmlns="http://www.w3.org/2000/svg" id="card" viewBox="0 0 50 50"><path d="M48.5386 15.0176c0-2.7568-2.2432-5-5-5H6.4614c-2.7568 0-5 2.2432-5 5v19.9648c0 2.7569 2.2432 5 5 5h37.0772c2.7568 0 5-2.2431 5-5V15.0176zm-2 19.9648c0 1.6543-1.3457 3-3 3H6.4614c-1.6543 0-3-1.3457-3-3V15.0176c0-1.6543 1.3457-3 3-3h37.0772c1.6543 0 3 1.3457 3 3v19.9648z"/><path d="M17.4488 14.3701c-.951 0-1.8502.2174-2.6599.5955-.8303-.385-1.7352-.5974-2.6556-.5974-3.4785 0-6.3076 2.8359-6.3076 6.3213 0 3.4785 2.8291 6.3076 6.3076 6.3076.9197 0 1.8225-.2114 2.6507-.5949.8109.3795 1.7118.5978 2.6648.5978 3.4814 0 6.3144-2.833 6.3144-6.3144 0-3.4825-2.833-6.3155-6.3144-6.3155zm-9.6231 6.3194c0-2.3829 1.9326-4.3213 4.3076-4.3213.2271 0 .4489.0222.668.0559-1.0321 1.1247-1.668 2.6183-1.668 4.2615 0 1.6406.6345 3.1324 1.6643 4.2564-.2178.0333-.4385.0551-.6643.0551-2.375 0-4.3076-1.9326-4.3076-4.3076zM17.4488 25c-2.3799 0-4.3155-1.9355-4.3155-4.3144 0-2.3799 1.9356-4.3155 4.3155-4.3155 2.3789 0 4.3144 1.9356 4.3144 4.3155 0 2.3789-1.9355 4.3144-4.3144 4.3144zm5.3144 6.6914H7.314c-.5527 0-1 .4473-1 1s.4473 1 1 1h15.4492c.5527 0 1-.4473 1-1s-.4473-1-1-1zm18.3838-4.917h-9.833c-.5527 0-1 .4473-1 1 0 .5528.4473 1 1 1h9.833c.5527 0 1-.4472 1-1 0-.5527-.4473-1-1-1zm0 4.917h-9.833c-.5527 0-1 .4473-1 1s.4473 1 1 1h9.833c.5527 0 1-.4473 1-1s-.4473-1-1-1z"/></symbol><symbol xmlns="http://www.w3.org/2000/svg" xmlns:xlink="http://www.w3.org/1999/xlink" xml:space="preserve" id="cart" viewBox="0 0 511.728 511.728"><path xmlns="http://www.w3.org/2000/svg" d="M147.925 379.116c-22.357-1.142-21.936-32.588-.001-33.68 62.135.216 226.021.058 290.132.103 17.535 0 32.537-11.933 36.481-29.017l36.404-157.641c2.085-9.026-.019-18.368-5.771-25.629s-14.363-11.484-23.626-11.484c-25.791 0-244.716-.991-356.849-1.438L106.92 54.377c-4.267-15.761-18.65-26.768-34.978-26.768H15c-8.284 0-15 6.716-15 15s6.716 15 15 15h56.942c2.811 0 5.286 1.895 6.017 4.592l68.265 253.276c-12.003.436-23.183 5.318-31.661 13.92-8.908 9.04-13.692 21.006-13.471 33.695.442 25.377 21.451 46.023 46.833 46.023h21.872c-3.251 6.824-5.076 14.453-5.076 22.501 0 28.95 23.552 52.502 52.502 52.502s52.502-23.552 52.502-52.502c0-8.049-1.826-15.677-5.077-22.501h94.716c-3.248 6.822-5.073 14.447-5.073 22.493 0 28.95 23.553 52.502 52.502 52.502 28.95 0 52.503-23.553 52.503-52.502 0-8.359-1.974-16.263-5.464-23.285 5.936-1.999 10.216-7.598 10.216-14.207 0-8.284-6.716-15-15-15zm91.799 52.501c0 12.408-10.094 22.502-22.502 22.502s-22.502-10.094-22.502-22.502c0-12.401 10.084-22.491 22.483-22.501h.038c12.399.01 22.483 10.1 22.483 22.501zm167.07 22.494c-12.407 0-22.502-10.095-22.502-22.502 0-12.285 9.898-22.296 22.137-22.493h.731c12.24.197 22.138 10.208 22.138 22.493-.001 12.407-10.096 22.502-22.504 22.502zm74.86-302.233c.089.112.076.165.057.251l-15.339 66.425H414.43l8.845-67.023 58.149.234c.089.002.142.002.23.113zm-154.645 163.66v-66.984h53.202l-8.84 66.984zm-74.382 0-8.912-66.984h53.294v66.984zm-69.053 0h-.047c-3.656-.001-6.877-2.467-7.828-5.98l-16.442-61.004h54.193l8.912 66.984zm56.149-96.983-9.021-67.799 66.306.267v67.532zm87.286 0v-67.411l66.022.266-8.861 67.145zm-126.588-67.922 9.037 67.921h-58.287l-18.38-68.194zm237.635 164.905H401.63l8.84-66.984h48.973l-14.137 61.217c-.784 3.396-3.765 5.767-7.25 5.767z" data-original="#000000"/></symbol><symbol xmlns="http://www.w3.org/2000/svg" id="check" fill-rule="evenodd" stroke-linejoin="round" stroke-miterlimit="2" clip-rule="evenodd" viewBox="0 0 24 24"><path fill-rule="nonzero" d="M11.998 2.005c5.517 0 9.997 4.48 9.997 9.997 0 5.518-4.48 9.998-9.997 9.998C6.48 22 2 17.52 2 12.002c0-5.517 4.48-9.997 9.998-9.997zM6.949 12.391l3.851 3.43c.142.128.321.19.499.19.202 0 .405-.081.552-.242l5.953-6.509c.131-.143.196-.323.196-.502 0-.41-.331-.747-.748-.747-.204 0-.405.082-.554.243l-5.453 5.962-3.298-2.938c-.144-.127-.321-.19-.499-.19-.415 0-.748.335-.748.746 0 .205.084.409.249.557z"/></symbol><symbol xmlns="http://www.w3.org/2000/svg" xmlns:xlink="http://www.w3.org/1999/xlink" xml:space="preserve" id="chevron" viewBox="0 0 32 32"><g id="Chevron_Down_Circle" fill="#121313"><path d="M16 0C7.164 0 0 7.163 0 16c0 8.836 7.164 16 16 16 8.837 0 16-7.164 16-16 0-8.837-7.163-16-16-16zm0 30C8.28 30 2 23.72 2 16S8.28 2 16 2s14.031 6.28 14.031 14S23.72 30 16 30z"/><path d="m22.3 12.393-6.285 6.195-6.285-6.196c-.394-.391-1.034-.391-1.429 0-.394.391-.394 1.024 0 1.414l6.999 6.9c.384.38 1.044.381 1.429 0l6.999-6.899c.394-.391.394-1.024 0-1.414-.394-.39-1.033-.39-1.428 0z"/></g></symbol><symbol xmlns="http://www.w3.org/2000/svg" id="coupon" viewBox="0 0 64 64"><path d="m62.707 23.293-22-22c-.391-.391-1.023-.391-1.414 0l-38 38c-.286.286-.372.716-.217 1.09S1.596 41 2 41h4v5c0 .553.448 1 1 1h4v5c0 .553.448 1 1 1h5v4c0 .553.448 1 1 1h5v4c0 .404.244.77.617.924.124.052.254.076.383.076.26 0 .516-.102.707-.293l38-38c.391-.391.391-1.023 0-1.414zM24 56h-5v-4c0-.553-.448-1-1-1h-5v-5c0-.553-.448-1-1-1H8v-5c0-.553-.448-1-1-1H4.414L10 33.414 30.586 54 25 59.586V57c0-.553-.448-1-1-1zm8-3.414L11.414 32 40 3.414 60.586 24 32 52.586z"/><path d="M33.649 23.838c.548.547 1.278.848 2.056.848s1.509-.301 2.058-.849c1.133-1.135 1.132-2.98-.002-4.114l-1.798-1.798c-1.096-1.096-3.021-1.094-4.113-.001-.548.548-.85 1.278-.85 2.056s.302 1.509.85 2.057l1.799 1.801zm-.384-4.499c.169-.17.397-.264.642-.264s.473.094.643.264l1.798 1.798c.354.354.354.932.001 1.285-.34.338-.944.339-1.284.001l-1.8-1.8c-.171-.17-.265-.398-.265-.643s.094-.471.265-.641zm14.773 6.296c.548.548 1.278.85 2.057.85.777 0 1.508-.302 2.056-.849.548-.548.851-1.278.85-2.058 0-.777-.302-1.508-.85-2.056l-1.8-1.8c-1.096-1.096-3.017-1.096-4.11 0-1.134 1.134-1.135 2.979-.001 4.114l1.798 1.799zm-.383-4.498c.169-.17.396-.264.64-.264s.472.094.642.264l1.8 1.8c.17.17.264.398.264.643 0 .243-.093.472-.264.642-.34.34-.944.34-1.284 0l-1.798-1.798c-.355-.356-.355-.933 0-1.287zm-8.625-9.14c-.211-.51-.799-.75-1.307-.541-.51.211-.752.796-.541 1.307l7.787 18.8c.159.385.532.617.924.617.128 0 .258-.024.383-.076.51-.211.752-.796.541-1.307l-7.787-18.8zM27.707 24.293c-.391-.391-1.023-.391-1.414 0l-8 8c-.391.391-.391 1.023 0 1.414.195.195.451.293.707.293s.512-.098.707-.293l8-8c.391-.391.391-1.023 0-1.414zm3 3c-.391-.391-1.023-.391-1.414 0l-8 8c-.391.391-.391 1.023 0 1.414.195.195.451.293.707.293s.512-.098.707-.293l8-8c.391-.391.391-1.023 0-1.414zm3 3c-.391-.391-1.023-.391-1.414 0l-8 8c-.391.391-.391 1.023 0 1.414.195.195.451.293.707.293s.512-.098.707-.293l8-8c.391-.391.391-1.023 0-1.414zm3 3c-.391-.391-1.023-.391-1.414 0l-8 8c-.391.391-.391 1.023 0 1.414.195.195.451.293.707.293s.512-.098.707-.293l8-8c.391-.391.391-1.023 0-1.414zm1.586 3-8 8c-.391.391-.391 1.023 0 1.414.195.195.451.293.707.293s.512-.098.707-.293l8-8c.391-.391.391-1.023 0-1.414s-1.023-.391-1.414 0z"/></symbol><symbol xmlns="http://www.w3.org/2000/svg" id="cross" fill-rule="evenodd" stroke-linejoin="round" stroke-miterlimit="2" clip-rule="evenodd" viewBox="0 0 24 24"><path fill-rule="nonzero" d="M12.002 2.005c5.518 0 9.998 4.48 9.998 9.997C22 17.52 17.52 22 12.002 22c-5.517 0-9.997-4.48-9.997-9.998 0-5.517 4.48-9.997 9.997-9.997zm0 8.933L9.281 8.216c-.146-.146-.339-.219-.531-.219-.404 0-.75.324-.75.749 0 .193.073.384.219.531l2.722 2.722-2.728 2.728c-.147.147-.22.34-.22.531 0 .427.35.75.751.75.192 0 .384-.073.53-.219l2.728-2.728 2.729 2.728c.146.146.338.219.53.219.401 0 .75-.323.75-.75 0-.191-.073-.384-.22-.531l-2.727-2.728 2.717-2.717c.146-.147.219-.338.219-.531 0-.425-.346-.75-.75-.75-.192 0-.385.073-.531.22z"/></symbol><symbol xmlns="http://www.w3.org/2000/svg" xmlns:xlink="http://www.w3.org/1999/xlink" xml:space="preserve" id="delete" viewBox="0 0 32 32"><path xmlns="http://www.w3.org/2000/svg" id="XMLID_246_" d="M27 6h-6V5c0-1.654-1.346-3-3-3h-4c-1.654 0-3 1.346-3 3v1H5c-1.103 0-2 .897-2 2v1c0 .552.448 1 1 1h24c.552 0 1-.448 1-1V8c0-1.103-.897-2-2-2zM13 5c0-.551.449-1 1-1h4c.551 0 1 .449 1 1v1h-6z" data-original="#000000"/><path xmlns="http://www.w3.org/2000/svg" id="XMLID_249_" d="M6 12v15c0 1.654 1.346 3 3 3h14c1.654 0 3-1.346 3-3V12zm13.707 10.293c.391.391.391 1.023 0 1.414s-1.023.391-1.414 0L16 21.414l-2.293 2.293c-.391.391-1.023.391-1.414 0s-.391-1.023 0-1.414L14.586 20l-2.293-2.293c-.391-.391-.391-1.023 0-1.414s1.023-.391 1.414 0L16 18.586l2.293-2.293c.391-.391 1.023-.391 1.414 0s.391 1.023 0 1.414L17.414 20z" data-original="#000000"/></symbol><symbol xmlns="http://www.w3.org/2000/svg" xmlns:xlink="http://www.w3.org/1999/xlink" xml:space="preserve" id="easy" viewBox="0 0 78.99 122.88"><path d="M28 58.2c-.04-.13-.09-.3-.11-.45-.24-2.05-.47-4.31-.67-6.26-.28-2.86-.6-6.16-.82-8.48-.15-1.57-.65-3.06-1.38-4.18-.49-.71-1.03-1.25-1.64-1.51-.49-.19-1.08-.22-1.7.02-.84.32-1.79 1.01-2.84 2.2-.93 1.06-1.66 2.48-2.26 3.98-.86 2.2-1.36 4.54-1.57 6.14-.02.11-.02.19-.06.28L9.12 83.02c-.09.43-.26.82-.52 1.12-1.96 2.52-3.19 4.69-3.55 6.44-.26 1.29 0 2.33.86 3.14l21.44 21.44c1.36 1.31 2.95 2.13 4.84 2.48 2.07.39 4.48.17 7.26-.58.04 0 .11-.02.15-.02 1.05-.28 2.43-.62 3.75-.95 5.75-1.4 10.76-2.63 15.41-6.85l5.98-6.24c.06-.11.15-.19.24-.28.09-.09.67-.67 1.46-1.42 4.09-4 9.15-8.93 6.07-13.26l-2.39-2.39c-1.16 1.12-2.39 2.22-3.57 3.27-1.08.95-2.09 1.83-3.01 2.76-.99.99-2.58.99-3.57 0-.99-.99-.99-2.58 0-3.57.93-.93 2.07-1.94 3.25-2.99 4.05-3.57 8.7-7.66 6.2-11.24l-2.37-2.37c-.13-.13-.24-.28-.34-.43-1.36 1.4-2.86 2.73-4.33 4.03-1.08.95-2.09 1.83-3.01 2.76-.99.99-2.58.99-3.57 0-.99-.99-.99-2.58 0-3.57.93-.93 2.07-1.94 3.25-2.99 4.05-3.57 8.7-7.66 6.2-11.24l-2.37-2.37c-.17-.17-.3-.34-.41-.54l-6.95 6.95c-.99.99-2.58.99-3.57 0-.99-.99-.99-2.58 0-3.57L70.6 41.86c3.12-3.12 3.83-6.37 3.01-8.83-.3-.9-.8-1.7-1.42-2.32-.62-.62-1.42-1.12-2.32-1.42-2.43-.8-5.66-.06-8.87 3.14l-32.7 32.7c-.99.99-2.58.99-3.57 0-.99-.99-.99-2.58 0-3.57l3.32-3.32-.05-.04zM40.73 0l1.84 19.94-5.61.51L35.13.51l5.6-.51zm26.22 8.97L53.97 24.59l-4.33-3.6L62.62 5.37l4.33 3.6zM16 11.84l15.43 12.82-3.6 4.33L12.4 16.17l3.6-4.33zm49.93 41.84c.19.11.37.24.54.41l2.48 2.48c.13.13.26.3.37.45 2.78 3.81 2.35 7.21.45 10.31.34.13.67.32.93.58l2.48 2.48c.13.13.26.3.37.45 2.99 4.11 2.24 7.71 0 10.98.11.06.19.15.3.26l2.48 2.48c.13.13.26.3.37.45 5.75 7.86-1.1 14.53-6.61 19.91l-1.42 1.42-6.14 6.44-.19.19c-5.62 5.1-11.19 6.46-17.63 8.03-1.08.26-2.17.54-3.68.93-.04 0-.06.02-.11.02-3.49.95-6.65 1.18-9.49.67-2.88-.52-5.38-1.81-7.47-3.85L2.51 97.34C.34 95.25-.4 92.67.21 89.61c.47-2.45 1.89-5.17 4.13-8.09l5.73-32.42v-.13c.26-1.85.84-4.59 1.85-7.23.77-1.98 1.81-3.92 3.16-5.49 1.64-1.85 3.25-2.99 4.84-3.6 1.96-.75 3.83-.65 5.49.06 1.55.65 2.86 1.83 3.85 3.34 1.21 1.81 2 4.11 2.22 6.52.17 1.98.52 5.25.84 8.46l.26 2.67L57.4 28.88c4.76-4.76 9.92-5.71 14.04-4.35 1.66.54 3.12 1.44 4.33 2.65s2.11 2.67 2.65 4.33c1.36 4.11.43 9.34-4.24 14.02l-8.22 8.22-.03-.07z"/></symbol><symbol xmlns="http://www.w3.org/2000/svg" id="crown" viewBox="0 0 32 32"><path d="M28.5 11c-.827 0-1.5.673-1.5 1.5 0 .231.057.447.15.643l-1.324 1.324-1.95-4.254A1.5 1.5 0 0 0 24.5 9c0-.827-.673-1.5-1.5-1.5s-1.5.673-1.5 1.5c0 .451.204.851.52 1.126l-1.868 2.989-2.98-5.502C17.671 7.249 18 6.664 18 6c0-1.103-.897-2-2-2s-2 .897-2 2c0 .664.329 1.249.828 1.613l-2.98 5.502-1.868-2.989c.316-.275.52-.675.52-1.126 0-.827-.673-1.5-1.5-1.5S7.5 8.173 7.5 9c0 .499.248.939.624 1.212l-1.95 4.254-1.324-1.323c.093-.196.15-.412.15-.643 0-.827-.673-1.5-1.5-1.5S2 11.673 2 12.5c0 .778.597 1.412 1.356 1.485L5.979 24.48l-.954 2.862A.499.499 0 0 0 5.5 28h21a.496.496 0 0 0 .405-.208.496.496 0 0 0 .069-.45l-.954-2.862 2.623-10.495A1.496 1.496 0 0 0 28.5 11zM23 8.5a.496.496 0 1 1 .166.966c-.019.002-.038-.002-.058.002L23 9.5c-.018 0-.071-.016-.137-.035-.01-.003-.02.004-.031.001A.498.498 0 0 1 23 8.5zm-.067 2.052 2.14 4.669-2.452 2.452-1.922-3.548 2.234-3.573zM16 5a1 1 0 1 1 0 2 1 1 0 0 1 0-2zM9 8.5a.494.494 0 1 1 .132.973c-.007.002-.015-.002-.022 0l-.049.015c-.02.002-.039.012-.061.012-.038 0-.072-.014-.108-.022v-.009c-.02-.004-.038-.001-.058-.002A.499.499 0 0 1 8.5 9c0-.275.225-.5.5-.5zm.067 2.052 2.234 3.573-1.921 3.548-2.452-2.452 2.139-4.669zm-5.216 2.303a.525.525 0 0 1-.235.113c-.012.003-.02.011-.032.015-.028.005-.054.017-.084.017-.275 0-.5-.225-.5-.5s.225-.5.5-.5a.501.501 0 0 1 .351.855zM6.193 27l.667-2h18.28l.667 2H6.193zm18.916-3H6.891l-2.468-9.87 4.724 4.724a.502.502 0 0 0 .182.113c.019.007.04.007.06.012.036.008.072.021.111.021a.5.5 0 0 0 .439-.262l2.38-4.393v-.002l3.445-6.36c.027.004.054-.002.081 0 .052.005.102.017.155.017s.103-.012.154-.016c.027-.002.054.004.081 0l3.445 6.36v.002l2.38 4.393a.502.502 0 0 0 .367.257c.025.002.05.004.073.004.038 0 .073-.013.109-.022.021-.005.043-.005.063-.012a.495.495 0 0 0 .181-.112l4.724-4.724L25.109 24zM28.5 13c-.03 0-.056-.012-.085-.017-.011-.004-.02-.012-.032-.015a.525.525 0 0 1-.235-.113A.501.501 0 0 1 28.5 12c.275 0 .5.225.5.5s-.225.5-.5.5zM16 17c-1.379 0-2.5 1.121-2.5 2.5S14.621 22 16 22s2.5-1.121 2.5-2.5S17.379 17 16 17zm0 4c-.827 0-1.5-.673-1.5-1.5S15.173 18 16 18s1.5.673 1.5 1.5S16.827 21 16 21z"/></symbol><symbol xmlns="http://www.w3.org/2000/svg" id="email" viewBox="0 0 128 128"><path d="M116.73 31.83a3 3 0 0 0-4.2-.61L64.14 67.34a1 1 0 0 1-1.2 0L15.5 31.06a3 3 0 1 0-3.64 4.77l37.3 28.53-36.89 27.8A3 3 0 1 0 15.88 97l38.23-28.86 5.18 4a7 7 0 0 0 8.43.06l5.44-4.06L111.84 97a3 3 0 1 0 3.59-4.81L78.17 64.35 116.12 36a3 3 0 0 0 .61-4.17Z"/><path d="M113 19H15A15 15 0 0 0 0 34v60a15 15 0 0 0 15 15h98a15 15 0 0 0 15-15V34a15 15 0 0 0-15-15Zm9 75a9 9 0 0 1-9 9H15a9 9 0 0 1-9-9V34a9 9 0 0 1 9-9h98a9 9 0 0 1 9 9Z"/></symbol><symbol xmlns="http://www.w3.org/2000/svg" id="eye" viewBox="0 0 24 24"><path d="M12.015 7c4.751 0 8.063 3.012 9.504 4.636C20.118 13.473 16.806 17 12.015 17c-4.42 0-7.93-3.536-9.478-5.407C4.03 9.946 7.354 7 12.015 7zm0-2C4.446 5 0 11.551 0 11.551S4.835 19 12.015 19C19.748 19 24 11.551 24 11.551S19.709 5 12.015 5zM12 8c-2.21 0-4 1.791-4 4s1.79 4 4 4c2.209 0 4-1.791 4-4s-1.791-4-4-4zm-.004 3.999c-.564.564-1.479.564-2.044 0s-.565-1.48 0-2.044c.564-.564 1.479-.564 2.044 0s.565 1.479 0 2.044z"/></symbol><symbol xmlns="http://www.w3.org/2000/svg" id="facebook" viewBox="0 0 24 24"><path d="M12 2c5.514 0 10 4.486 10 10s-4.486 10-10 10S2 17.514 2 12 6.486 2 12 2zm0-2C5.373 0 0 5.373 0 12s5.373 12 12 12 12-5.373 12-12S18.627 0 12 0zm-2 10H8v2h2v6h3v-6h1.82l.18-2h-2v-.833c0-.478.096-.667.558-.667H15V6h-2.404C10.798 6 10 6.792 10 8.308V10z"/></symbol><symbol xmlns="http://www.w3.org/2000/svg" id="eye-close" viewBox="0 0 24 24"><path fill-rule="evenodd" d="m20.0980654 15.8909586-1.4142409-1.4142409c.6341784-.6410703 1.2170849-1.3174652 1.7384284-1.9935938.1305879-.1693591.2512591-.3309463.3615818-.4831239-.1103227-.1521776-.2309939-.3137648-.3615818-.4831239-.6046417-.7841577-1.2920905-1.56867356-2.0462929-2.29802586C16.2825083 7.1943753 14.1050769 6 12 6c-.5223006 0-1.0490555.07352686-1.5778767.21501656l-1.58197356-1.5819736C9.8725965 4.22137709 10.9270589 4 12 4c2.7275481 0 5.3356792 1.4306247 7.76629 3.78114976.8292195.8018977 1.5794035 1.65800688 2.2398009 2.51447414.3985027.5168169.6814351.9233706.8363444 1.1655786L23.1870348 12l-.3445995.5387975c-.1549093.242208-.4378417.6487617-.8363444 1.1655786-.571165.740742-1.209492 1.4812162-1.9080257 2.1865822l2e-7 3e-7Zm-3.0925266 2.5287937C15.3942929 19.4304919 13.7209154 20 12 20c-2.72754815 0-5.33567916-1.4306247-7.76628997-3.7811498-.82921949-.8018977-1.57940351-1.6580068-2.23980092-2.5144741-.39850273-.5168169-.68143513-.9233706-.8363444-1.1655786L.81296521 12l.3445995-.5387975c.15490927-.242208.43784167-.6487617.8363444-1.1655786.66039741-.85646726 1.41058143-1.71257644 2.23980092-2.51447414.37060907-.35839794.74534527-.69540926 1.12400265-1.00922352L1.29289322 2.70710678l1.41421356-1.41421356L22.7071068 21.2928932l-1.4142136 1.4142136-4.2873544-4.2873545ZM6.77972015 8.19393371c-.38739688.3124083-.77294206.65478918-1.15568018 1.02491653-.75420238.7293523-1.44165118 1.51386816-2.04629283 2.29802586-.1305879.1693591-.25125912.3309463-.36158188.4831239.11032276.1521776.23099398.3137648.36158188.4831239.60464165.7841577 1.29209045 1.5686736 2.04629283 2.2980259C7.71749166 16.8056247 9.89492315 18 12 18c1.1681669 0 2.3586152-.3678025 3.5446291-1.0411574l-1.5126618-1.5126617C13.4364541 15.7980706 12.7418086 16 12 16c-2.209139 0-4-1.790861-4-4 0-.7418086.20192939-1.4364541.55381909-2.03196735L6.77972015 8.19393371Zm3.28802305 3.28802309C10.0235573 11.6471834 10 11.8208407 10 12c0 1.1045695.8954305 2 2 2 .1791593 0 .3528166-.0235573.5180432-.0677432l-2.4503-2.4503Z"/></symbol><symbol xmlns="http://www.w3.org/2000/svg" xml:space="preserve" id="fuel" viewBox="0 0 512 512"><g xmlns="http://www.w3.org/2000/svg"><path d="m416.92 89.996 33.008-.001c8.283 0 14.999-6.716 14.999-15V15.001c0-8.284-6.716-15-15-15l-33-.001h-.007c-46.743 0-90.691 18.204-123.74 51.256l-50.311 50.311-3.536-3.536c-5.857-5.858-15.355-5.857-21.213 0l-24.749 24.749-17.678-17.677c-5.857-5.858-15.355-5.858-21.213 0l-63.64 63.64c-4.867 4.867-5.797 12.422-2.256 18.324l15.188 25.312-83.641 83.642c-5.858 5.858-5.858 15.355 0 21.213l17.678 17.678-15.841 15.84C7.802 364.918.001 383.752.001 403.785V497c0 8.284 6.716 15 15 15s15-6.716 15-15v-93.215c0-12.02 4.681-23.32 13.18-31.819l15.841-15.841 38.891 38.891c14.166 14.166 33 21.967 53.033 21.967s38.867-7.801 53.032-21.967l120.21-120.21c3.426-3.425 4.986-8.294 4.189-13.072l-14.143-84.854c-.514-3.083-1.979-5.93-4.189-8.14l-3.536-3.536 50.314-50.313c16.054-16.054 37.398-24.895 60.101-24.897zm-234.16 283.81c-8.499 8.5-19.8 13.18-31.819 13.18-12.021 0-23.32-4.681-31.82-13.18l-10.606-10.607 55.711-55.711v20.356c0 8.284 6.716 15 15 15s15-6.716 15-15v-32.298l44.53 22.265zm78.355-78.356-75.183-37.591c-5.776-2.889-12.751-1.755-17.314 2.81l-81.317 81.317-35.355-35.355 81.317-81.317c4.867-4.867 5.797-12.422 2.256-18.324l-15.188-25.312 44.752-44.751 17.678 17.677c5.856 5.858 15.354 5.858 21.213 0l24.749-24.749 56.705 56.705 12.083 72.497zM285.29 144l-21.213-21.213 50.311-50.311c27.387-27.388 63.802-42.47 102.54-42.469h18.001v29.995l-18.009.001c-30.715.001-59.592 11.964-81.312 33.683zM489.975 190.189c-10.18-17.548-20.211-32.103-20.633-32.714C466.541 153.42 461.928 151 457 151s-9.541 2.42-12.342 6.475c-.422.611-10.453 15.166-20.633 32.714C404.283 224.221 402 238.34 402 246c0 30.327 24.673 55 55 55s55-24.673 55-55c0-7.66-2.283-21.779-22.025-55.811zM457 271c-13.785 0-25-11.215-25-25 0-8.017 11.479-30.634 25.003-52.545C470.523 215.355 482 237.969 482 246c0 13.785-11.215 25-25 25z" data-original="#000000"/></g></symbol><symbol xmlns="http://www.w3.org/2000/svg" xmlns:xlink="http://www.w3.org/1999/xlink" xml:space="preserve" id="handover" viewBox="0 0 122.88 98.75"><path d="m76.71 23.6 15.76 15.97v7.51h-7.46v-5.65h-6.18v-6.18h-5.91l-1.71-5.57c-2.72 1.82-6.03 2.88-9.58 2.88-9.32 0-16.88-7.29-16.88-16.28C44.75 7.29 52.31 0 61.63 0s16.88 7.29 16.88 16.28c0 2.63-.65 5.12-1.8 7.32zM0 45.47h24.83v44.18H0V45.47zm29.83 40.47V49.02h16.61c7.04 1.26 14.08 5.08 21.12 9.51h12.9c5.84.35 8.9 6.27 3.22 10.16-4.53 3.32-10.49 3.13-16.61 2.58-4.22-.21-4.4 5.46 0 5.48 1.53.12 3.19-.24 4.64-.24 7.63-.01 13.92-1.47 17.77-7.5l1.93-4.51 19.19-9.51c9.6-3.16 16.42 6.88 9.35 13.87C106.06 78.96 91.81 87.28 77.23 94c-10.59 6.44-21.18 6.22-31.76 0l-15.64-8.06zM59.2 11.07c1.66 0 3.01 1.35 3.01 3.01 0 1.66-1.35 3.01-3.01 3.01-1.67 0-3.01-1.35-3.01-3.01 0-1.67 1.35-3.01 3.01-3.01z"/></symbol><symbol xmlns="http://www.w3.org/2000/svg" id="info" fill-rule="evenodd" stroke-linejoin="round" stroke-miterlimit="2" clip-rule="evenodd" viewBox="0 0 24 24"><path fill-rule="nonzero" d="M12.002 2.005c5.518 0 9.998 4.48 9.998 9.997C22 17.52 17.52 22 12.002 22c-5.517 0-9.997-4.48-9.997-9.998 0-5.517 4.48-9.997 9.997-9.997zm0 8c-.414 0-.75.336-.75.75v5.5c0 .414.336.75.75.75s.75-.336.75-.75v-5.5c0-.414-.336-.75-.75-.75zm-.002-3c-.552 0-1 .448-1 1s.448 1 1 1 1-.448 1-1-.448-1-1-1z"/></symbol></svg>
